
<svg id="svg" version="1.1" xmlns="http://www.w3.org/2000/svg" xmlns:xlink="http://www.w3.org/1999/xlink" width="400" height="223" viewBox="0, 0, 400,223"><g id="svgg"><path id="path0" d="M250.084 52.426 C 250.084 52.690,252.860 52.698,254.322 52.437 C 255.112 52.297,254.767 52.253,252.705 52.231 C 251.088 52.214,250.084 52.288,250.084 52.426 M179.862 97.723 C 167.275 99.978,163.380 116.655,173.665 124.253 C 180.845 129.557,191.387 127.030,195.161 119.101 C 200.386 108.126,191.455 95.646,179.862 97.723 M240.714 112.437 L 240.714 127.161 255.215 127.161 L 269.716 127.161 269.716 112.437 L 269.716 97.713 255.215 97.713 L 240.714 97.713 240.714 112.437 M211.794 105.205 C 208.007 109.080,204.862 112.297,204.806 112.353 C 204.750 112.409,207.903 115.654,211.811 119.564 L 218.918 126.673 225.856 119.641 C 229.672 115.774,232.825 112.481,232.862 112.324 C 232.926 112.054,219.165 98.160,218.834 98.160 C 218.749 98.160,215.581 101.330,211.794 105.205 M145.742 99.995 C 145.269 100.598,131.400 124.496,131.400 124.707 C 131.400 124.854,136.395 124.930,145.927 124.930 C 160.047 124.930,160.451 124.919,160.344 124.510 C 160.283 124.279,157.945 120.188,155.148 115.419 C 152.351 110.650,149.168 105.192,148.074 103.291 C 145.766 99.276,146.022 99.637,145.742 99.995 M146.955 174.617 C 147.351 174.667,148.054 174.667,148.517 174.619 C 148.980 174.571,148.656 174.530,147.797 174.529 C 146.938 174.528,146.559 174.568,146.955 174.617 M181.230 177.245 C 181.231 178.472,181.268 178.945,181.314 178.297 C 181.359 177.649,181.358 176.645,181.313 176.066 C 181.267 175.487,181.230 176.018,181.230 177.245 " stroke="none" fill="#0cfc1c" fill-rule="evenodd"></path><path id="path1" d="M118.015 20.498 C 110.442 20.662,109.619 20.952,108.608 23.809 C 108.168 25.053,108.180 199.798,108.621 201.079 C 109.006 202.198,110.052 203.370,111.181 203.946 L 112.085 204.407 200.772 204.376 L 289.459 204.345 290.456 203.729 C 291.004 203.390,291.757 202.680,292.129 202.151 L 292.805 201.189 292.866 112.562 L 292.927 23.936 292.197 22.850 C 291.795 22.253,291.015 21.488,290.463 21.150 L 289.459 20.535 206.916 20.448 C 161.517 20.399,121.511 20.422,118.015 20.498 M289.277 21.877 C 290.047 22.168,291.064 23.106,291.487 23.915 C 291.756 24.431,291.801 37.187,291.801 112.393 L 291.801 200.268 291.165 201.146 C 290.815 201.630,290.238 202.222,289.882 202.463 C 289.243 202.895,288.233 202.901,200.745 202.958 L 112.254 203.016 111.286 202.284 C 110.754 201.882,110.136 201.182,109.913 200.730 C 109.526 199.941,109.504 196.299,109.377 112.502 L 109.245 25.098 109.705 24.205 C 110.173 23.298,111.072 22.345,111.880 21.899 C 112.501 21.556,288.370 21.534,289.277 21.877 M144.698 43.240 C 144.636 43.340,145.408 46.355,146.414 49.939 L 148.243 56.456 149.693 56.393 L 151.142 56.330 152.049 51.876 C 152.547 49.426,153.010 47.569,153.078 47.749 C 153.146 47.929,153.583 49.958,154.049 52.259 L 154.897 56.442 156.371 56.442 L 157.846 56.442 159.670 49.922 C 161.693 42.692,161.691 43.065,159.716 43.060 L 158.472 43.056 157.486 47.397 C 156.929 49.852,156.439 51.573,156.360 51.357 C 156.283 51.148,155.892 49.370,155.492 47.407 C 154.560 42.833,154.691 43.056,152.935 43.056 C 151.765 43.056,151.489 43.127,151.403 43.447 C 151.345 43.661,150.965 45.569,150.560 47.685 C 150.154 49.801,149.755 51.407,149.673 51.254 C 149.591 51.101,149.206 49.571,148.816 47.853 C 148.427 46.135,148.010 44.353,147.889 43.893 L 147.668 43.056 146.240 43.056 C 145.454 43.056,144.761 43.139,144.698 43.240 M163.004 43.205 C 162.922 43.287,162.856 46.299,162.856 49.898 L 162.856 56.442 164.051 56.442 L 165.247 56.442 165.388 55.270 C 165.465 54.626,165.530 53.397,165.532 52.538 C 165.538 49.666,166.237 48.445,167.659 48.822 C 168.614 49.075,168.852 49.993,168.866 53.486 L 168.879 56.442 170.363 56.442 L 171.847 56.442 171.721 52.553 C 171.582 48.259,171.441 47.721,170.240 46.913 C 169.281 46.267,167.540 46.223,166.378 46.816 C 165.394 47.317,165.317 47.173,165.313 44.811 C 165.310 43.466,165.264 43.319,164.808 43.197 C 164.136 43.017,163.188 43.021,163.004 43.205 M174.010 44.395 L 174.010 45.733 175.349 45.733 L 176.687 45.733 176.687 44.395 L 176.687 43.056 175.349 43.056 L 174.010 43.056 174.010 44.395 M189.180 49.749 L 189.180 56.442 190.376 56.442 L 191.572 56.442 191.713 55.270 C 191.790 54.626,191.854 53.278,191.855 52.273 C 191.858 49.954,192.080 49.374,193.132 48.934 C 194.737 48.263,195.173 49.226,195.191 53.486 L 195.204 56.442 196.684 56.442 L 198.164 56.442 198.059 52.443 C 197.943 48.039,197.839 47.671,196.474 46.839 C 195.548 46.274,193.786 46.263,192.703 46.816 C 191.719 47.317,191.642 47.173,191.637 44.813 C 191.634 43.211,191.464 43.056,189.710 43.056 L 189.180 43.056 189.180 49.749 M215.505 49.749 L 215.505 56.442 216.704 56.442 C 218.140 56.442,218.169 56.372,218.204 52.789 C 218.233 49.858,218.341 49.506,219.365 49.003 C 221.063 48.168,221.528 49.118,221.528 53.423 L 221.528 56.442 223.006 56.442 L 224.484 56.442 224.390 52.456 C 224.286 48.060,224.178 47.680,222.799 46.839 C 221.844 46.257,220.111 46.262,219.015 46.849 L 218.182 47.296 218.182 45.176 L 218.182 43.056 216.843 43.056 L 215.505 43.056 215.505 49.749 M208.031 46.391 C 203.806 47.092,203.833 51.391,208.071 52.644 C 211.017 53.516,211.249 53.696,210.252 54.350 C 209.517 54.831,208.139 54.468,207.605 53.652 C 207.151 52.960,204.892 52.809,204.645 53.454 C 204.333 54.265,205.403 55.769,206.722 56.372 C 209.809 57.786,213.402 56.343,213.664 53.585 C 213.830 51.841,212.953 51.049,209.931 50.211 C 208.042 49.688,207.572 49.387,207.944 48.939 C 208.362 48.436,209.597 48.572,210.348 49.204 C 211.679 50.324,213.653 50.126,213.352 48.904 C 212.897 47.054,210.592 45.965,208.031 46.391 M250.414 46.491 C 245.549 48.015,245.856 55.427,250.836 56.681 C 253.462 57.342,256.330 55.707,256.330 53.550 C 256.330 53.073,253.550 53.415,252.831 53.980 C 252.022 54.617,251.280 54.549,250.496 53.765 C 249.216 52.485,249.550 52.312,253.264 52.330 L 256.546 52.346 256.425 51.438 C 255.891 47.411,253.571 45.501,250.414 46.491 M181.033 46.714 C 176.417 48.725,177.947 56.859,182.946 56.883 C 185.761 56.897,189.026 53.200,186.559 52.792 C 184.974 52.530,184.746 52.597,184.401 53.422 C 183.537 55.490,181.260 54.155,181.313 51.613 C 181.367 48.993,182.828 48.067,184.410 49.649 C 185.510 50.749,187.242 50.738,187.350 49.630 C 187.570 47.389,183.644 45.576,181.033 46.714 M228.058 46.841 C 227.010 47.317,226.215 48.402,226.214 49.359 C 226.213 50.306,228.156 50.271,229.259 49.303 C 230.142 48.527,230.644 48.468,231.368 49.054 C 232.137 49.677,231.654 50.079,229.760 50.391 C 226.905 50.863,225.990 51.685,225.990 53.778 C 225.990 56.480,228.527 57.688,231.078 56.202 C 231.966 55.685,232.013 55.680,232.013 56.107 C 232.013 56.373,232.339 56.442,233.601 56.442 C 235.148 56.442,235.184 56.429,235.024 55.940 C 234.933 55.664,234.741 53.693,234.596 51.561 C 234.353 47.956,234.299 47.655,233.825 47.272 C 232.658 46.327,229.681 46.104,228.058 46.841 M240.495 46.652 C 240.191 46.773,239.765 47.033,239.547 47.230 C 239.181 47.561,239.152 47.552,239.152 47.107 C 239.152 46.668,239.036 46.626,237.814 46.626 L 236.475 46.626 236.475 53.430 L 236.475 60.234 237.814 60.234 L 239.152 60.234 239.152 57.872 L 239.152 55.510 239.828 56.078 C 241.867 57.794,244.871 56.600,245.721 53.736 C 247.105 49.076,244.221 45.165,240.495 46.652 M174.010 51.534 L 174.010 56.442 175.349 56.442 L 176.687 56.442 176.687 51.534 L 176.687 46.626 175.349 46.626 L 174.010 46.626 174.010 51.534 M241.916 49.070 C 243.664 49.735,243.579 53.274,241.792 54.231 C 240.751 54.788,239.392 53.510,239.336 51.922 C 239.259 49.700,240.363 48.480,241.916 49.070 M252.968 49.444 C 253.672 50.340,253.568 50.418,251.666 50.418 C 250.003 50.418,249.909 50.392,250.021 49.965 C 250.328 48.789,252.193 48.460,252.968 49.444 M231.573 53.531 C 230.959 54.678,229.406 54.952,228.897 54.001 C 228.455 53.174,228.965 52.728,230.898 52.252 C 231.776 52.035,232.073 52.597,231.573 53.531 M259.147 167.632 C 257.454 168.261,256.335 169.844,256.331 171.612 C 256.330 172.218,256.347 172.225,257.780 172.225 C 259.047 172.225,259.230 172.173,259.230 171.809 C 259.230 170.466,261.168 169.701,262.131 170.664 C 262.863 171.396,262.679 171.961,261.268 173.313 C 260.387 174.157,259.912 174.805,259.818 175.293 C 259.740 175.692,259.617 176.324,259.545 176.698 L 259.413 177.379 260.814 177.312 C 262.185 177.246,262.219 177.229,262.400 176.528 C 262.507 176.113,262.913 175.561,263.362 175.218 C 267.793 171.839,264.374 165.688,259.147 167.632 M135.862 174.345 L 135.862 181.149 137.172 181.149 L 138.482 181.149 138.589 178.081 C 138.705 174.797,138.922 173.989,139.801 173.588 C 141.536 172.798,141.948 173.569,142.069 177.832 L 142.163 181.149 143.614 181.149 L 145.065 181.149 144.910 177.301 C 144.641 170.672,143.463 169.517,138.929 171.438 C 138.574 171.589,138.539 171.421,138.539 169.572 L 138.539 167.540 137.200 167.540 L 135.862 167.540 135.862 174.345 M149.391 170.901 C 147.740 171.307,146.651 172.550,146.831 173.822 C 146.948 174.648,148.975 174.708,149.774 173.909 C 150.428 173.255,151.490 173.152,151.944 173.700 C 152.378 174.223,151.831 174.545,149.929 174.885 C 147.237 175.366,146.128 176.636,146.457 178.861 C 146.823 181.341,149.359 182.219,151.799 180.711 L 152.593 180.220 152.593 180.685 C 152.593 181.111,152.721 181.149,154.181 181.149 L 155.769 181.149 155.621 180.535 C 155.540 180.198,155.382 179.520,155.270 179.030 C 155.158 178.539,155.062 176.876,155.057 175.335 C 155.044 171.427,153.181 169.970,149.391 170.901 M159.112 170.930 C 156.996 171.647,156.080 174.995,157.660 176.238 C 157.973 176.484,159.220 176.992,160.431 177.365 C 162.554 178.021,163.125 178.458,162.280 178.783 C 161.375 179.130,160.356 178.916,159.732 178.249 C 159.182 177.659,158.958 177.579,157.858 177.579 L 156.609 177.579 156.610 178.305 C 156.612 180.237,158.295 181.362,161.182 181.362 C 164.446 181.362,165.701 180.276,165.482 177.640 C 165.330 175.803,164.953 175.514,161.350 174.463 C 159.621 173.959,159.377 173.688,160.328 173.327 C 161.025 173.061,162.098 173.358,162.518 173.932 C 162.695 174.174,163.226 174.339,164.049 174.407 L 165.310 174.511 165.310 173.848 C 165.310 171.636,161.843 170.005,159.112 170.930 M176.734 170.883 C 176.330 170.979,175.816 171.224,175.591 171.427 C 175.208 171.774,175.175 171.768,175.063 171.342 C 174.960 170.947,174.765 170.887,173.585 170.887 L 172.225 170.887 172.225 176.018 L 172.225 181.149 173.654 181.149 L 175.084 181.149 175.160 177.930 C 175.245 174.364,175.540 173.528,176.761 173.382 C 178.155 173.215,178.472 174.031,178.472 177.792 L 178.472 181.149 179.823 181.149 L 181.175 181.149 181.106 176.705 C 181.026 171.555,180.945 171.342,178.880 170.899 C 177.666 170.639,177.761 170.640,176.734 170.883 M185.696 171.090 C 183.510 172.083,182.287 175.583,183.188 178.271 C 184.707 182.810,191.630 182.469,192.750 177.800 C 193.902 172.999,189.893 169.185,185.696 171.090 M202.272 170.891 C 198.904 171.902,197.881 178.002,200.670 180.450 C 203.339 182.794,208.366 180.755,208.366 177.328 C 208.366 176.708,205.474 177.140,205.126 177.812 C 203.984 180.021,201.441 178.092,202.128 175.539 C 202.714 173.364,204.268 172.768,205.242 174.344 C 205.985 175.546,208.143 175.436,208.143 174.196 C 208.143 171.814,205.032 170.062,202.272 170.891 M212.031 171.086 C 206.338 173.672,209.779 183.028,215.807 181.354 C 221.362 179.811,220.053 170.673,214.278 170.673 C 213.452 170.673,212.591 170.831,212.031 171.086 M224.987 171.015 C 224.619 171.207,224.142 171.523,223.927 171.718 C 223.564 172.046,223.536 172.029,223.536 171.479 C 223.536 170.904,223.497 170.887,222.197 170.887 L 220.859 170.887 220.859 176.018 L 220.859 181.149 222.288 181.149 L 223.716 181.149 223.793 178.032 C 223.882 174.460,224.060 174.077,225.734 173.852 L 226.659 173.728 226.659 172.196 C 226.659 170.475,226.389 170.284,224.987 171.015 M232.237 170.906 C 231.930 171.033,231.453 171.349,231.177 171.608 L 230.675 172.080 230.675 171.483 C 230.675 170.903,230.639 170.887,229.336 170.887 L 227.998 170.887 227.998 176.018 L 227.998 181.149 229.303 181.149 L 230.609 181.149 230.731 178.081 C 230.863 174.794,231.082 173.978,231.937 173.588 C 233.724 172.774,234.114 173.482,234.212 177.714 L 234.292 181.149 235.750 181.149 L 237.208 181.149 237.096 177.071 C 236.971 172.499,236.767 171.748,235.512 171.225 C 234.480 170.795,232.880 170.639,232.237 170.906 M241.215 171.104 C 236.642 173.180,237.702 181.019,242.598 181.331 C 245.125 181.492,247.209 180.408,247.538 178.763 C 247.806 177.424,246.039 177.225,244.270 178.395 C 243.328 179.019,242.741 178.967,241.885 178.184 C 240.857 177.243,241.144 177.133,244.636 177.133 L 247.888 177.133 247.732 175.627 C 247.316 171.602,244.470 169.627,241.215 171.104 M253.765 170.822 C 253.519 170.881,252.992 171.241,252.593 171.621 L 251.868 172.313 251.868 171.600 L 251.868 170.887 250.675 170.887 L 249.482 170.887 249.337 173.264 C 249.257 174.571,249.191 176.880,249.191 178.395 L 249.191 181.149 250.641 181.149 L 252.091 181.149 252.104 178.528 C 252.122 174.792,252.598 173.800,254.378 173.790 C 254.989 173.787,254.992 173.779,254.992 172.225 C 254.992 170.562,254.968 170.534,253.765 170.822 M188.811 173.589 C 190.545 174.379,190.309 177.732,188.456 178.641 C 186.707 179.500,185.157 176.730,186.180 174.575 C 186.702 173.476,187.723 173.093,188.811 173.589 M215.256 173.705 C 215.877 174.140,216.397 175.297,216.397 176.245 C 216.397 178.733,213.570 179.663,212.471 177.536 C 211.317 175.304,213.416 172.416,215.256 173.705 M244.182 173.888 C 245.036 174.743,244.878 174.902,243.181 174.902 C 241.403 174.902,241.132 174.687,241.919 173.900 C 242.628 173.191,243.480 173.186,244.182 173.888 M152.275 177.301 C 151.944 178.715,150.341 179.534,149.570 178.682 C 148.995 178.046,149.341 177.565,150.716 177.087 C 152.275 176.546,152.446 176.570,152.275 177.301 M259.677 179.587 L 259.677 181.149 261.015 181.149 L 262.354 181.149 262.354 179.587 L 262.354 178.026 261.015 178.026 L 259.677 178.026 259.677 179.587 " stroke="none" fill="#040404" fill-rule="evenodd"></path></g></svg>