
<svg id="svg" version="1.1" xmlns="http://www.w3.org/2000/svg" xmlns:xlink="http://www.w3.org/1999/xlink" width="400" height="204.8465266558966" viewBox="0, 0, 400,204.8465266558966"><g id="svgg"><path id="path0" d="M111.538 71.612 C 110.801 71.908,110.833 69.543,110.833 122.908 L 110.833 173.167 105.995 173.167 C 99.336 173.167,99.290 173.191,99.195 176.875 L 99.140 179.000 113.737 179.000 L 128.333 179.000 128.333 177.119 C 128.333 173.292,128.117 173.167,121.544 173.167 L 116.667 173.167 116.667 127.417 L 116.667 81.667 118.583 81.667 L 120.500 81.667 120.500 78.833 L 120.500 76.000 118.583 76.000 L 116.667 76.000 116.667 74.325 C 116.667 72.586,116.451 71.811,115.909 71.604 C 115.590 71.481,111.845 71.488,111.538 71.612 M284.038 71.612 C 283.551 71.808,283.333 72.645,283.333 74.325 L 283.333 76.000 281.583 76.000 L 279.833 76.000 279.833 78.833 L 279.833 81.667 281.583 81.667 L 283.333 81.667 283.333 127.417 L 283.333 173.167 278.456 173.167 C 271.873 173.167,271.799 173.208,271.691 176.958 L 271.632 179.000 286.246 179.000 L 300.860 179.000 300.805 176.845 C 300.712 173.182,300.684 173.167,294.042 173.167 L 289.167 173.167 289.167 122.742 L 289.167 72.318 288.758 71.909 C 288.361 71.512,284.837 71.290,284.038 71.612 M131.121 99.239 C 124.956 101.415,123.178 109.130,127.798 113.651 C 133.339 119.073,142.562 115.228,142.551 107.500 C 142.543 101.561,136.637 97.292,131.121 99.239 M175.931 99.020 C 172.202 99.894,169.424 103.514,169.424 107.500 C 169.424 115.279,178.742 119.101,184.250 113.581 C 190.397 107.421,184.455 97.021,175.931 99.020 M176.530 121.010 C 172.267 121.765,168.950 126.120,169.395 130.378 C 170.210 138.176,179.823 141.108,184.820 135.083 C 189.894 128.965,184.388 119.618,176.530 121.010 M198.333 121.094 C 191.646 122.538,189.185 130.860,194.012 135.708 C 199.502 141.223,208.833 137.367,208.833 129.583 C 208.833 124.050,203.735 119.927,198.333 121.094 M176.417 143.159 C 169.570 144.647,167.045 152.750,171.864 157.769 C 176.676 162.780,185.157 160.288,186.612 153.436 C 187.870 147.517,182.281 141.885,176.417 143.159 M198.130 143.259 C 191.589 144.845,189.269 153.033,194.000 157.839 C 198.708 162.621,206.883 160.418,208.578 153.910 C 210.219 147.608,204.450 141.727,198.130 143.259 " stroke="none" fill="#e69a13" fill-rule="evenodd"></path><path id="path1" d="M0.000 89.500 L 0.000 179.000 49.583 179.000 L 99.167 179.000 99.167 176.958 C 99.168 173.220,99.261 173.168,105.875 173.167 L 110.833 173.167 110.833 122.737 L 110.833 72.308 111.321 71.821 C 111.803 71.338,111.825 71.333,113.750 71.333 C 116.462 71.333,116.667 71.525,116.667 74.071 L 116.667 75.833 118.583 75.833 L 120.500 75.833 120.500 52.575 C 120.500 27.309,120.447 28.734,121.402 28.108 C 122.030 27.697,278.377 27.682,278.964 28.093 C 279.882 28.736,279.833 27.376,279.833 52.575 L 279.833 75.833 281.583 75.833 L 283.333 75.833 283.333 74.071 C 283.333 71.530,283.541 71.333,286.224 71.333 C 288.043 71.333,288.167 71.355,288.654 71.765 L 289.167 72.196 289.167 122.681 L 289.167 173.167 294.125 173.167 C 300.739 173.168,300.832 173.220,300.833 176.958 L 300.833 179.000 350.417 179.000 L 400.000 179.000 400.000 89.500 L 400.000 0.000 200.000 0.000 L 0.000 0.000 0.000 89.500 M213.493 11.408 C 213.603 11.541,213.669 11.888,213.638 12.178 L 213.583 12.706 214.750 12.683 C 215.392 12.670,216.143 12.618,216.419 12.567 C 217.537 12.360,218.149 13.451,217.924 15.252 L 217.809 16.167 217.080 16.167 L 216.350 16.167 216.236 15.163 C 216.060 13.608,215.500 13.793,215.500 15.406 L 215.500 16.167 214.764 16.167 L 214.028 16.167 213.919 14.875 C 213.779 13.233,213.697 12.995,213.680 14.188 C 213.654 16.008,213.573 16.167,212.660 16.167 L 211.862 16.167 211.754 14.875 C 211.623 13.290,211.545 12.894,211.519 13.678 C 211.509 14.006,211.294 14.681,211.042 15.178 L 210.583 16.083 209.639 16.133 C 208.798 16.177,208.682 16.143,208.581 15.827 L 208.468 15.471 208.225 15.819 C 208.035 16.089,207.803 16.167,207.180 16.167 L 206.379 16.167 205.939 14.618 C 205.357 12.564,205.327 12.667,206.500 12.667 C 207.477 12.667,207.500 12.677,207.512 13.125 C 207.518 13.377,207.595 13.733,207.681 13.917 C 207.796 14.158,207.816 14.028,207.755 13.450 L 207.671 12.651 208.710 12.700 L 209.750 12.750 209.801 13.458 C 209.869 14.394,210.117 14.361,210.262 13.397 L 210.377 12.628 211.114 12.711 C 211.850 12.794,211.851 12.793,211.748 12.324 C 211.533 11.344,212.861 10.647,213.493 11.408 M184.107 12.524 C 184.048 13.088,184.000 14.138,184.000 14.858 L 184.000 16.167 183.167 16.167 L 182.333 16.167 182.327 14.958 C 182.320 13.831,182.304 13.779,182.088 14.176 C 181.805 14.697,181.276 14.952,180.173 15.098 C 179.385 15.203,179.333 15.239,179.333 15.688 C 179.333 16.482,177.724 16.424,177.593 15.625 C 177.346 14.125,177.190 11.910,177.323 11.777 C 177.680 11.420,181.283 11.728,181.737 12.155 L 182.167 12.558 182.167 12.029 L 182.167 11.500 183.190 11.500 L 184.214 11.500 184.107 12.524 M204.056 11.792 C 204.098 11.860,204.031 12.817,203.907 13.917 C 203.783 15.017,203.678 15.973,203.674 16.042 C 203.670 16.110,203.301 16.167,202.854 16.167 C 201.930 16.167,201.949 16.200,201.730 14.066 C 201.639 13.183,201.553 12.939,201.308 12.875 C 201.003 12.795,200.865 12.024,201.111 11.778 C 201.265 11.624,203.962 11.637,204.056 11.792 M223.374 11.792 C 223.408 11.860,223.377 12.629,223.307 13.500 C 223.237 14.371,223.177 15.280,223.174 15.520 C 223.167 16.095,222.784 16.399,222.240 16.262 C 221.892 16.175,221.819 16.068,221.857 15.702 C 221.883 15.453,221.859 15.175,221.803 15.083 C 221.717 14.942,221.584 12.161,221.646 11.792 C 221.657 11.723,222.037 11.667,222.490 11.667 C 222.943 11.667,223.341 11.723,223.374 11.792 M187.409 12.736 C 188.185 13.060,188.356 13.471,188.299 14.878 L 188.250 16.083 187.333 16.116 C 186.829 16.135,186.154 16.198,185.833 16.256 C 184.562 16.490,183.730 14.832,184.726 14.049 C 185.026 13.813,185.087 13.656,184.986 13.382 C 184.703 12.619,186.183 12.224,187.409 12.736 M195.792 12.832 C 196.399 13.202,196.571 14.262,196.090 14.662 C 195.876 14.839,195.877 14.912,196.101 15.254 C 196.342 15.622,196.331 15.660,195.909 15.937 C 194.981 16.545,193.098 16.159,192.877 15.316 C 192.747 14.817,192.500 14.948,192.500 15.516 C 192.500 17.080,190.621 18.150,189.443 17.257 C 188.946 16.880,189.227 16.333,189.918 16.333 C 190.227 16.333,190.517 16.274,190.562 16.201 C 190.607 16.129,190.388 16.099,190.076 16.136 C 189.166 16.242,188.499 15.467,188.502 14.304 C 188.506 12.779,188.590 12.642,189.480 12.700 L 190.250 12.750 190.296 13.667 C 190.322 14.171,190.383 14.696,190.432 14.833 C 190.611 15.331,190.864 14.507,190.806 13.614 L 190.750 12.750 191.708 12.700 L 192.667 12.650 192.677 13.283 C 192.686 13.830,192.708 13.865,192.838 13.543 C 193.215 12.606,194.797 12.225,195.792 12.832 M199.470 12.645 C 199.949 12.948,199.644 14.083,199.083 14.083 C 198.598 14.083,198.579 14.113,198.429 15.125 L 198.275 16.167 197.494 16.167 L 196.714 16.167 196.607 15.142 C 196.548 14.579,196.500 13.784,196.500 13.377 L 196.500 12.636 197.486 12.693 C 198.029 12.724,198.529 12.693,198.597 12.625 C 198.762 12.460,199.195 12.470,199.470 12.645 M220.801 12.607 C 221.390 12.765,221.268 13.769,220.667 13.707 C 220.263 13.665,220.267 13.677,220.792 14.094 C 222.287 15.281,220.533 16.909,218.620 16.109 C 217.781 15.759,218.016 14.913,218.905 15.087 L 219.417 15.187 218.883 14.832 C 217.243 13.743,218.706 12.046,220.801 12.607 M179.500 13.429 C 179.500 13.976,180.058 13.927,180.137 13.373 C 180.177 13.090,180.107 13.000,179.845 13.000 C 179.585 13.000,179.500 13.106,179.500 13.429 M131.871 32.741 C 125.266 34.341,123.009 42.509,127.838 47.338 C 133.210 52.710,142.500 48.799,142.500 41.167 C 142.500 35.589,137.261 31.436,131.871 32.741 M153.964 32.759 C 147.517 34.322,145.171 42.154,149.681 47.054 C 153.748 51.473,161.078 50.401,163.722 45.000 C 166.944 38.419,161.060 31.038,153.964 32.759 M176.049 32.745 C 167.030 35.284,167.422 48.099,176.567 49.678 C 183.703 50.910,189.068 43.408,185.645 36.984 C 183.896 33.703,179.517 31.769,176.049 32.745 M198.106 32.764 C 193.581 33.860,190.681 38.588,191.751 43.127 C 193.615 51.032,204.558 52.220,207.947 44.884 C 211.007 38.265,205.155 31.058,198.106 32.764 M220.185 32.753 C 210.799 35.387,211.846 48.875,221.506 49.773 C 229.395 50.506,233.980 40.865,228.447 35.179 C 226.312 32.984,222.915 31.987,220.185 32.753 M242.272 32.764 C 236.952 34.052,234.164 40.047,236.594 44.974 C 240.034 51.949,250.087 51.202,252.577 43.786 C 254.691 37.486,248.800 31.184,242.272 32.764 M264.368 32.749 C 257.878 34.573,255.644 42.222,260.183 47.074 C 266.098 53.398,276.708 47.886,274.914 39.420 C 273.911 34.683,268.858 31.487,264.368 32.749 M131.183 55.095 C 125.095 57.169,123.236 64.517,127.622 69.179 C 132.947 74.842,142.508 71.115,142.498 63.380 C 142.490 57.366,136.784 53.188,131.183 55.095 M153.685 54.930 C 148.478 56.331,145.821 62.300,148.258 67.127 C 151.882 74.305,162.577 73.092,164.415 65.295 C 165.909 58.959,159.984 53.236,153.685 54.930 M175.868 54.926 C 169.400 56.667,167.257 64.625,171.983 69.351 C 177.458 74.826,186.676 71.000,186.665 63.257 C 186.656 57.587,181.309 53.461,175.868 54.926 M197.852 54.930 C 192.183 56.455,189.716 63.315,193.072 68.226 C 196.567 73.341,204.442 73.076,207.597 67.737 C 211.530 61.080,205.322 52.921,197.852 54.930 M220.046 54.923 C 212.813 56.871,211.298 66.448,217.576 70.532 C 223.323 74.271,230.905 70.073,230.879 63.167 C 230.859 57.605,225.429 53.473,220.046 54.923 M242.115 54.917 C 235.001 56.873,233.366 66.341,239.445 70.380 C 245.319 74.282,253.000 70.242,253.000 63.250 C 253.000 57.670,247.478 53.442,242.115 54.917 M264.185 54.930 C 256.993 56.864,255.492 66.428,261.738 70.524 C 267.836 74.522,275.987 69.396,275.028 62.167 C 274.345 57.022,269.193 53.583,264.185 54.930 M132.421 76.835 C 125.506 78.071,122.814 86.598,127.796 91.484 C 133.355 96.936,142.487 93.100,142.498 85.309 C 142.505 79.996,137.638 75.902,132.421 76.835 M198.794 76.830 C 191.732 78.097,189.068 86.536,194.137 91.583 C 198.581 96.007,206.352 94.150,208.331 88.190 C 210.387 81.996,205.101 75.699,198.794 76.830 M220.667 76.846 C 213.999 78.009,211.290 86.618,216.082 91.420 C 219.976 95.323,226.424 94.747,229.424 90.228 C 233.649 83.862,228.198 75.533,220.667 76.846 M242.891 76.840 C 236.184 78.029,233.343 86.130,237.887 91.113 C 243.149 96.882,252.553 93.572,252.959 85.809 C 253.247 80.290,248.299 75.882,242.891 76.840 M264.833 76.846 C 260.856 77.540,257.818 81.222,257.812 85.355 C 257.800 93.076,267.007 96.908,272.538 91.484 C 278.553 85.585,273.187 75.389,264.833 76.846 M116.667 127.500 L 116.667 173.167 121.642 173.167 C 128.221 173.167,128.333 173.231,128.333 177.042 L 128.333 179.000 200.000 179.000 L 271.667 179.000 271.667 177.042 C 271.667 173.231,271.779 173.167,278.358 173.167 L 283.333 173.167 283.333 127.500 L 283.333 81.833 281.583 81.833 L 279.833 81.833 279.833 122.708 C 279.832 168.554,279.949 164.253,278.682 164.909 C 277.919 165.303,122.414 165.303,121.651 164.909 C 120.384 164.253,120.501 168.554,120.501 122.708 L 120.500 81.833 118.583 81.833 L 116.667 81.833 116.667 127.500 M197.949 99.083 C 191.481 100.861,189.367 108.979,194.150 113.667 C 198.984 118.404,207.026 116.060,208.582 109.460 C 210.061 103.190,204.115 97.388,197.949 99.083 M220.042 99.091 C 212.544 101.110,211.330 111.509,218.166 115.153 C 225.552 119.089,233.675 111.212,229.984 103.692 C 228.160 99.976,223.965 98.034,220.042 99.091 M242.115 99.084 C 235.692 100.849,233.539 108.903,238.235 113.599 C 243.683 119.047,252.996 115.200,252.996 107.500 C 252.996 101.868,247.487 97.607,242.115 99.084 M264.185 99.097 C 257.780 100.819,255.628 109.067,260.394 113.629 C 266.027 119.022,275.076 115.244,275.076 107.500 C 275.076 101.800,269.663 97.624,264.185 99.097 M221.067 120.996 C 213.934 122.069,211.069 130.846,216.233 135.804 C 221.785 141.136,230.880 137.277,230.893 129.583 C 230.903 124.380,226.154 120.231,221.067 120.996 M243.417 120.950 C 236.186 121.909,233.120 130.528,238.181 135.668 C 242.820 140.379,250.452 138.533,252.619 132.176 C 254.243 127.411,250.937 121.978,245.861 121.073 C 244.569 120.842,244.319 120.830,243.417 120.950 M265.156 121.005 C 258.978 121.952,255.752 129.057,259.138 134.262 C 263.061 140.293,272.051 139.328,274.581 132.604 C 276.866 126.535,271.573 120.021,265.156 121.005 M220.402 143.247 C 214.570 144.516,211.728 151.417,214.970 156.433 C 218.354 161.670,226.144 161.667,229.532 156.429 C 233.696 149.992,227.895 141.617,220.402 143.247 M242.750 143.159 C 235.908 144.646,233.346 152.620,238.094 157.654 C 243.466 163.348,253.000 159.515,253.000 151.662 C 253.000 146.373,247.803 142.062,242.750 143.159 M264.568 143.247 C 258.661 144.533,255.878 151.492,259.243 156.562 C 262.881 162.043,271.388 161.448,274.233 155.512 C 277.363 148.981,271.634 141.710,264.568 143.247 " stroke="none" fill="#293046" fill-rule="evenodd"></path><path id="path2" d="M223.212 13.000 C 223.212 13.412,223.245 13.581,223.284 13.375 C 223.324 13.169,223.324 12.831,223.284 12.625 C 223.245 12.419,223.212 12.588,223.212 13.000 M212.347 12.727 C 212.385 12.759,212.642 12.837,212.917 12.898 C 213.282 12.980,213.349 12.964,213.167 12.841 C 212.942 12.689,212.180 12.582,212.347 12.727 M182.385 14.250 C 182.386 14.800,182.417 15.005,182.454 14.705 C 182.491 14.406,182.490 13.956,182.452 13.705 C 182.414 13.455,182.384 13.700,182.385 14.250 M121.672 28.047 C 121.445 28.161,121.089 28.509,120.880 28.819 L 120.500 29.383 120.500 96.374 C 120.500 170.415,120.408 164.185,121.514 164.757 C 122.225 165.125,278.109 165.125,278.819 164.757 C 279.926 164.185,279.833 170.415,279.833 96.374 L 279.833 29.383 279.453 28.819 C 279.244 28.509,278.888 28.161,278.662 28.047 C 278.056 27.740,122.277 27.740,121.672 28.047 M200.292 30.125 L 123.000 30.167 122.958 96.542 L 122.916 162.917 122.875 96.458 L 122.833 30.000 200.208 30.041 L 277.583 30.083 200.292 30.125 M136.145 32.742 C 142.688 34.484,144.821 42.887,139.896 47.526 C 134.356 52.744,125.171 48.778,125.171 41.167 C 125.171 35.472,130.637 31.276,136.145 32.742 M158.345 32.766 C 166.045 35.028,166.969 45.470,159.781 48.997 C 152.339 52.649,144.580 44.877,148.167 37.364 C 149.955 33.618,154.404 31.608,158.345 32.766 M180.312 32.742 C 186.601 34.416,188.906 42.153,184.557 46.995 C 179.859 52.225,171.205 50.002,169.590 43.149 C 168.094 36.805,174.008 31.064,180.312 32.742 M202.511 32.766 C 209.532 34.828,211.158 44.040,205.246 48.259 C 199.421 52.415,191.504 48.329,191.504 41.167 C 191.504 35.390,197.046 31.160,202.511 32.766 M224.329 32.680 C 228.850 33.722,231.825 38.563,230.749 43.127 C 229.129 49.998,220.481 52.233,215.776 46.995 C 210.081 40.655,215.993 30.759,224.329 32.680 M246.678 32.769 C 252.089 34.375,254.631 40.228,252.062 45.167 C 247.847 53.271,235.667 50.300,235.667 41.167 C 235.667 35.405,241.240 31.154,246.678 32.769 M268.845 32.764 C 275.154 34.607,277.239 42.380,272.712 47.182 C 267.322 52.899,257.758 49.052,257.758 41.167 C 257.758 35.383,263.336 31.156,268.845 32.764 M135.667 54.736 C 142.401 56.163,144.921 64.517,140.090 69.399 C 135.330 74.210,127.133 71.981,125.422 65.410 C 123.812 59.230,129.401 53.407,135.667 54.736 M157.594 54.679 C 163.545 55.758,166.644 62.866,163.368 67.924 C 158.583 75.312,147.191 71.942,147.289 63.167 C 147.350 57.721,152.225 53.706,157.594 54.679 M180.833 54.987 C 186.940 56.894,188.810 64.846,184.232 69.437 C 180.032 73.651,172.816 72.461,170.274 67.135 C 166.912 60.092,173.375 52.656,180.833 54.987 M202.020 54.740 C 208.816 56.180,211.217 64.796,206.154 69.573 C 201.413 74.044,193.773 72.063,191.831 65.857 C 189.852 59.529,195.506 53.359,202.020 54.740 M224.407 54.831 C 230.933 56.500,233.187 64.621,228.447 69.390 C 224.303 73.560,217.282 72.555,214.546 67.399 C 210.991 60.700,217.069 52.954,224.407 54.831 M246.187 54.740 C 252.936 56.170,255.365 64.582,250.449 69.498 C 245.887 74.059,237.905 72.046,235.992 65.851 C 234.034 59.511,239.678 53.360,246.187 54.740 M268.569 54.830 C 275.182 56.521,277.393 64.571,272.581 69.438 C 269.203 72.855,263.675 72.855,260.267 69.437 C 254.068 63.220,260.071 52.656,268.569 54.830 M136.873 77.155 C 144.058 79.914,144.600 89.798,137.750 93.181 C 131.938 96.051,125.167 91.873,125.167 85.417 C 125.167 79.428,131.378 75.045,136.873 77.155 M158.061 76.918 C 163.464 78.325,166.258 84.332,163.796 89.250 C 160.594 95.648,151.332 95.655,148.185 89.263 C 144.938 82.666,151.007 75.080,158.061 76.918 M180.243 76.922 C 186.870 78.648,189.019 87.025,184.032 91.690 C 178.428 96.932,169.454 93.076,169.428 85.417 C 169.409 79.660,174.725 75.484,180.243 76.922 M202.411 76.922 C 208.575 78.528,210.957 86.448,206.701 91.187 C 201.376 97.115,191.521 93.419,191.504 85.489 C 191.491 79.635,196.804 75.462,202.411 76.922 M224.953 77.090 C 232.341 79.570,233.124 89.665,226.196 93.132 C 220.534 95.966,213.933 92.201,213.547 85.917 C 213.172 79.793,219.171 75.149,224.953 77.090 M246.576 76.922 C 251.350 78.165,254.228 83.502,252.620 88.127 C 250.457 94.345,242.737 96.153,238.167 91.513 C 231.976 85.229,238.045 74.700,246.576 76.922 M268.583 76.893 C 275.147 78.643,277.357 86.746,272.587 91.569 C 267.559 96.654,258.821 93.677,257.795 86.530 C 256.936 80.552,262.768 75.342,268.583 76.893 M158.333 99.112 C 164.521 100.806,166.748 108.553,162.417 113.310 C 157.050 119.204,147.315 115.458,147.322 107.500 C 147.327 101.703,152.740 97.580,158.333 99.112 M201.500 98.837 C 207.402 99.753,210.643 106.351,207.812 111.686 C 204.803 117.357,196.505 117.749,192.956 112.388 C 188.751 106.034,194.020 97.677,201.500 98.837 M224.926 99.182 C 229.161 100.490,231.776 105.105,230.749 109.460 C 229.136 116.300,220.555 118.552,215.826 113.376 C 209.813 106.797,216.386 96.544,224.926 99.182 M247.000 99.168 C 253.226 101.261,255.130 109.097,250.523 113.661 C 245.027 119.107,235.640 115.221,235.640 107.500 C 235.640 101.614,241.497 97.318,247.000 99.168 M269.093 99.182 C 275.080 101.031,277.147 108.666,272.917 113.310 C 267.494 119.263,257.783 115.535,257.783 107.500 C 257.783 101.481,263.329 97.401,269.093 99.182 M136.105 99.065 C 141.983 100.630,144.472 107.609,140.925 112.580 C 137.131 117.897,128.868 117.170,126.067 111.272 C 122.897 104.596,129.001 97.173,136.105 99.065 M180.282 99.068 C 186.740 100.787,188.950 108.871,184.250 113.581 C 178.742 119.101,169.424 115.279,169.424 107.500 C 169.424 101.791,174.807 97.610,180.282 99.068 M135.428 121.015 C 142.179 122.257,144.956 130.721,140.205 135.573 C 133.207 142.719,121.742 134.701,126.114 125.718 C 127.765 122.324,131.712 120.332,135.428 121.015 M157.750 121.085 C 164.494 122.503,166.992 130.760,162.167 135.684 C 156.671 141.291,147.333 137.436,147.333 129.561 C 147.333 124.007,152.326 119.944,157.750 121.085 M180.708 121.319 C 189.091 124.203,188.654 135.844,180.080 138.077 C 174.195 139.610,168.472 134.259,169.497 128.182 C 170.370 123.010,175.858 119.650,180.708 121.319 M201.881 121.079 C 208.667 122.517,211.178 130.758,206.333 135.690 C 200.905 141.215,191.514 137.397,191.502 129.660 C 191.493 124.094,196.515 119.942,201.881 121.079 M225.093 121.368 C 231.180 123.487,233.000 131.236,228.465 135.721 C 223.539 140.592,215.314 138.272,213.736 131.566 C 212.184 124.969,218.680 119.136,225.093 121.368 M245.928 121.015 C 250.893 121.929,254.151 127.127,252.761 131.917 C 250.636 139.236,241.106 140.651,236.968 134.262 C 232.882 127.953,238.498 119.649,245.928 121.015 M268.574 121.164 C 274.117 122.582,276.811 128.680,274.123 133.723 C 271.360 138.907,264.432 139.914,260.256 135.738 C 254.060 129.542,260.081 118.992,268.574 121.164 M135.923 143.254 C 142.787 145.006,144.901 153.492,139.655 158.235 C 134.102 163.255,125.167 159.169,125.167 151.610 C 125.167 146.144,130.627 141.902,135.923 143.254 M157.686 143.169 C 162.508 144.078,165.771 149.346,164.401 154.011 C 162.491 160.514,154.574 162.600,149.842 157.849 C 143.796 151.777,149.246 141.579,157.686 143.169 M180.892 143.487 C 187.042 145.630,188.775 153.259,184.160 157.874 C 179.087 162.947,170.507 160.020,169.464 152.859 C 168.545 146.556,174.853 141.383,180.892 143.487 M202.127 143.251 C 208.730 144.808,211.094 153.003,206.333 157.839 C 201.625 162.621,193.450 160.418,191.755 153.910 C 190.119 147.630,195.826 141.765,202.127 143.251 M224.383 143.248 C 231.658 145.143,233.355 154.623,227.186 158.916 C 221.449 162.909,213.500 158.684,213.500 151.641 C 213.500 146.113,219.024 141.852,224.383 143.248 M246.484 143.257 C 253.159 144.830,255.324 153.500,250.210 158.174 C 246.294 161.754,240.108 161.047,237.189 156.687 C 232.676 149.945,238.593 141.396,246.484 143.257 M268.561 143.251 C 275.100 144.954,277.380 153.032,272.672 157.814 C 268.451 162.102,261.362 161.012,258.685 155.663 C 255.329 148.959,261.363 141.376,268.561 143.251 " stroke="none" fill="#5fcf80" fill-rule="evenodd"></path><path id="path3" d="M213.292 11.333 C 213.626 11.708,213.547 12.463,213.151 12.675 C 212.595 12.973,212.031 12.735,211.839 12.123 L 211.671 11.583 211.756 12.188 L 211.841 12.793 211.129 12.752 C 210.737 12.730,210.660 12.743,210.958 12.782 C 211.546 12.860,211.619 13.008,211.719 14.333 C 211.762 14.914,211.782 14.838,211.805 14.000 L 211.834 12.917 212.742 12.895 C 213.452 12.879,213.666 12.933,213.722 13.145 C 213.783 13.372,213.798 13.367,213.814 13.116 C 213.831 12.860,213.986 12.817,214.875 12.826 C 215.448 12.831,216.156 12.790,216.448 12.734 C 216.877 12.652,217.063 12.714,217.407 13.058 C 217.641 13.293,217.833 13.419,217.833 13.338 C 217.833 12.976,216.914 12.475,216.419 12.567 C 216.143 12.618,215.393 12.670,214.752 12.683 L 213.588 12.706 213.638 12.132 C 213.672 11.731,213.596 11.489,213.385 11.329 C 213.127 11.133,213.113 11.133,213.292 11.333 M182.199 11.987 L 182.167 12.558 181.781 12.196 C 181.569 11.996,181.288 11.838,181.156 11.844 C 181.024 11.850,181.081 11.921,181.282 12.002 C 181.878 12.242,182.223 12.919,182.112 13.628 C 182.039 14.091,182.057 14.176,182.182 13.959 C 182.273 13.800,182.322 13.162,182.290 12.543 C 182.258 11.923,182.217 11.673,182.199 11.987 M177.229 11.911 C 177.177 12.046,177.174 12.252,177.221 12.370 C 177.268 12.487,177.313 12.417,177.320 12.214 C 177.333 11.860,177.407 11.842,179.125 11.791 L 180.917 11.737 179.120 11.702 C 177.671 11.674,177.305 11.714,177.229 11.911 M201.112 11.785 C 201.068 11.858,201.692 11.893,202.501 11.864 C 203.805 11.816,203.981 11.845,204.059 12.114 C 204.134 12.369,204.142 12.364,204.114 12.083 C 204.078 11.735,201.314 11.461,201.112 11.785 M221.561 11.915 C 221.505 12.061,221.506 12.228,221.563 12.285 C 221.620 12.342,221.667 12.264,221.667 12.111 C 221.667 11.792,223.237 11.695,223.390 12.004 C 223.437 12.098,223.456 12.079,223.433 11.963 C 223.365 11.623,221.689 11.581,221.561 11.915 M184.039 12.333 C 184.039 12.654,184.073 12.785,184.115 12.625 C 184.157 12.465,184.157 12.202,184.115 12.042 C 184.073 11.881,184.039 12.012,184.039 12.333 M185.417 12.668 C 185.197 12.763,185.347 12.781,185.854 12.720 C 187.578 12.513,188.047 12.922,188.180 14.750 L 188.277 16.083 188.305 14.864 C 188.351 12.898,187.092 11.942,185.417 12.668 M193.891 12.628 C 193.785 12.695,194.134 12.750,194.667 12.750 C 195.199 12.750,195.548 12.695,195.442 12.628 C 195.337 12.560,194.987 12.505,194.667 12.505 C 194.346 12.505,193.997 12.560,193.891 12.628 M203.879 13.167 C 203.879 13.579,203.911 13.748,203.951 13.542 C 203.991 13.335,203.991 12.998,203.951 12.792 C 203.911 12.585,203.879 12.754,203.879 13.167 M219.347 12.560 C 219.385 12.593,219.829 12.662,220.333 12.713 C 220.904 12.771,221.124 12.753,220.917 12.665 C 220.597 12.529,219.204 12.436,219.347 12.560 M189.367 12.783 L 190.151 12.851 190.214 13.760 L 190.277 14.668 190.264 13.709 L 190.250 12.750 189.417 12.733 L 188.583 12.716 189.367 12.783 M190.724 12.924 C 190.670 13.065,190.672 13.228,190.729 13.285 C 190.787 13.342,190.833 13.264,190.833 13.111 C 190.833 12.889,191.000 12.833,191.667 12.833 L 192.500 12.833 192.500 13.917 C 192.500 14.512,192.572 15.000,192.660 15.000 C 192.747 15.000,192.795 14.719,192.766 14.375 C 192.736 14.031,192.702 13.506,192.689 13.208 L 192.667 12.667 191.745 12.667 C 191.068 12.667,190.797 12.735,190.724 12.924 M196.532 13.792 L 196.564 14.917 196.624 13.859 L 196.683 12.802 197.493 12.859 C 197.938 12.891,198.267 12.860,198.224 12.792 C 198.182 12.723,197.776 12.667,197.323 12.667 L 196.500 12.667 196.532 13.792 M205.667 12.761 C 206.235 12.888,207.500 12.910,207.500 12.793 C 207.500 12.723,207.031 12.675,206.458 12.686 C 205.885 12.697,205.529 12.730,205.667 12.761 M207.680 12.950 C 207.688 13.125,207.728 13.163,207.777 13.042 C 207.957 12.597,209.635 12.779,209.718 13.252 C 209.784 13.636,209.789 13.632,209.770 13.210 C 209.751 12.765,209.717 12.748,208.708 12.700 C 207.795 12.657,207.668 12.688,207.680 12.950 M218.500 13.000 C 218.103 13.397,218.070 13.980,218.419 14.426 C 218.655 14.728,218.659 14.719,218.482 14.304 C 218.231 13.718,218.400 13.099,218.871 12.872 C 219.080 12.771,219.156 12.684,219.042 12.678 C 218.927 12.672,218.683 12.817,218.500 13.000 M201.700 13.583 C 201.695 13.858,201.751 14.421,201.825 14.833 C 201.923 15.387,201.961 15.452,201.967 15.083 C 201.971 14.808,201.915 14.246,201.842 13.833 C 201.743 13.280,201.706 13.215,201.700 13.583 M185.042 13.500 C 185.086 13.665,185.359 13.765,185.846 13.793 C 186.431 13.827,186.522 13.799,186.288 13.658 C 186.126 13.560,185.835 13.530,185.642 13.591 C 185.426 13.660,185.231 13.616,185.133 13.476 C 185.005 13.293,184.987 13.298,185.042 13.500 M199.500 13.678 C 199.500 13.949,199.428 13.999,199.159 13.914 C 198.702 13.769,198.329 14.107,198.353 14.645 C 198.372 15.068,198.377 15.066,198.481 14.583 C 198.572 14.164,198.669 14.083,199.086 14.083 C 199.475 14.083,199.595 14.001,199.637 13.708 C 199.666 13.502,199.647 13.333,199.595 13.333 C 199.543 13.333,199.500 13.488,199.500 13.678 M213.553 14.500 C 213.553 15.096,213.584 15.340,213.621 15.042 C 213.658 14.744,213.658 14.256,213.621 13.958 C 213.584 13.660,213.553 13.904,213.553 14.500 M213.881 14.250 C 213.882 14.708,213.915 14.876,213.953 14.623 C 213.991 14.369,213.990 13.994,213.951 13.789 C 213.911 13.584,213.880 13.792,213.881 14.250 M207.512 13.948 C 207.505 14.149,207.575 14.360,207.667 14.417 C 207.864 14.539,207.864 14.375,207.667 13.917 C 207.529 13.595,207.523 13.596,207.512 13.948 M217.883 14.500 C 217.883 15.004,217.915 15.210,217.953 14.958 C 217.991 14.706,217.991 14.294,217.953 14.042 C 217.915 13.790,217.883 13.996,217.883 14.500 M223.209 14.250 C 223.211 14.617,223.245 14.747,223.285 14.540 C 223.324 14.332,223.323 14.032,223.281 13.873 C 223.239 13.714,223.207 13.883,223.209 14.250 M203.714 14.750 C 203.716 15.208,203.748 15.376,203.786 15.123 C 203.825 14.869,203.824 14.494,203.784 14.289 C 203.744 14.084,203.713 14.292,203.714 14.750 M181.790 14.432 C 181.736 14.486,181.405 14.633,181.054 14.758 C 180.703 14.883,180.552 14.989,180.717 14.993 C 181.021 15.000,182.000 14.557,182.000 14.412 C 182.000 14.305,181.909 14.313,181.790 14.432 M196.000 14.583 C 195.886 14.721,195.595 14.834,195.355 14.836 C 195.023 14.838,194.976 14.876,195.159 14.992 C 195.292 15.076,195.464 15.106,195.541 15.058 C 195.618 15.010,195.809 15.068,195.966 15.186 C 196.206 15.367,196.218 15.364,196.044 15.169 C 195.879 14.984,195.892 14.878,196.111 14.636 C 196.262 14.469,196.345 14.333,196.296 14.333 C 196.247 14.333,196.114 14.446,196.000 14.583 M221.723 14.667 C 221.745 15.007,221.855 15.099,222.326 15.167 C 222.763 15.230,222.931 15.351,223.021 15.667 C 223.127 16.040,223.137 16.028,223.118 15.551 C 223.096 14.996,222.651 14.722,222.110 14.930 C 221.942 14.994,221.833 14.898,221.778 14.638 C 221.700 14.273,221.697 14.275,221.723 14.667 M186.167 14.788 C 186.304 14.840,186.472 14.966,186.539 15.067 C 186.615 15.180,186.663 15.138,186.664 14.958 C 186.666 14.762,186.544 14.671,186.292 14.680 C 186.041 14.689,186.000 14.725,186.167 14.788 M179.542 15.115 C 179.702 15.157,179.965 15.157,180.125 15.115 C 180.285 15.073,180.154 15.039,179.833 15.039 C 179.512 15.039,179.381 15.073,179.542 15.115 M196.709 15.583 C 196.711 15.950,196.745 16.080,196.785 15.873 C 196.824 15.666,196.823 15.366,196.781 15.206 C 196.739 15.047,196.707 15.217,196.709 15.583 M218.200 15.411 C 218.062 15.713,218.062 15.852,218.199 15.936 C 218.310 16.005,218.338 15.976,218.270 15.865 C 218.206 15.763,218.307 15.526,218.494 15.339 C 218.720 15.114,218.759 15.000,218.610 15.000 C 218.487 15.000,218.303 15.185,218.200 15.411 M182.372 15.667 C 182.372 15.987,182.406 16.119,182.448 15.958 C 182.490 15.798,182.490 15.535,182.448 15.375 C 182.406 15.215,182.372 15.346,182.372 15.667 M198.205 15.667 C 198.205 15.987,198.240 16.119,198.282 15.958 C 198.323 15.798,198.323 15.535,198.282 15.375 C 198.240 15.215,198.205 15.346,198.205 15.667 M122.875 96.458 L 122.916 162.917 122.958 96.542 L 123.000 30.167 200.292 30.125 L 277.583 30.083 200.208 30.041 L 122.833 30.000 122.875 96.458 M271.167 33.879 C 271.167 33.911,271.410 34.116,271.708 34.334 C 272.044 34.579,272.160 34.619,272.014 34.439 C 271.792 34.166,271.167 33.753,271.167 33.879 M139.917 35.000 C 140.368 35.458,140.775 35.833,140.821 35.833 C 140.867 35.833,140.535 35.458,140.083 35.000 C 139.632 34.542,139.225 34.167,139.179 34.167 C 139.133 34.167,139.465 34.542,139.917 35.000 M260.244 35.042 L 259.417 35.917 260.292 35.090 C 260.773 34.635,261.167 34.241,261.167 34.215 C 261.167 34.090,261.012 34.229,260.244 35.042 M149.742 35.042 L 149.083 35.750 149.792 35.091 C 150.450 34.478,150.577 34.333,150.450 34.333 C 150.423 34.333,150.105 34.652,149.742 35.042 M250.417 35.000 C 250.775 35.367,251.105 35.667,251.151 35.667 C 251.197 35.667,250.941 35.367,250.583 35.000 C 250.225 34.633,249.895 34.333,249.849 34.333 C 249.803 34.333,250.059 34.633,250.417 35.000 M193.906 35.042 L 193.417 35.583 193.958 35.094 C 194.463 34.638,194.577 34.500,194.448 34.500 C 194.419 34.500,194.175 34.744,193.906 35.042 M205.833 34.552 C 205.833 34.581,206.077 34.825,206.375 35.094 L 206.917 35.583 206.427 35.042 C 205.971 34.537,205.833 34.423,205.833 34.552 M228.333 35.052 C 228.333 35.081,228.577 35.325,228.875 35.594 L 229.417 36.083 228.927 35.542 C 228.471 35.037,228.333 34.923,228.333 35.052 M213.558 41.167 C 213.558 41.946,213.587 42.265,213.622 41.875 C 213.657 41.485,213.657 40.848,213.622 40.458 C 213.587 40.069,213.558 40.387,213.558 41.167 M186.723 41.167 C 186.723 41.854,186.752 42.135,186.788 41.792 C 186.824 41.448,186.824 40.885,186.788 40.542 C 186.752 40.198,186.723 40.479,186.723 41.167 M142.553 41.167 C 142.553 41.762,142.584 42.006,142.621 41.708 C 142.658 41.410,142.658 40.923,142.621 40.625 C 142.584 40.327,142.553 40.571,142.553 41.167 M257.720 41.167 C 257.720 41.762,257.750 42.006,257.787 41.708 C 257.824 41.410,257.824 40.923,257.787 40.625 C 257.750 40.327,257.720 40.571,257.720 41.167 M147.205 41.167 C 147.205 41.487,147.240 41.619,147.282 41.458 C 147.323 41.298,147.323 41.035,147.282 40.875 C 147.240 40.715,147.205 40.846,147.205 41.167 M253.039 41.167 C 253.039 41.487,253.073 41.619,253.115 41.458 C 253.157 41.298,253.157 41.035,253.115 40.875 C 253.073 40.715,253.039 40.846,253.039 41.167 M139.910 47.375 L 139.083 48.250 139.958 47.423 C 140.771 46.654,140.910 46.500,140.785 46.500 C 140.759 46.500,140.365 46.894,139.910 47.375 M260.250 47.333 C 260.701 47.792,261.108 48.167,261.154 48.167 C 261.200 48.167,260.868 47.792,260.417 47.333 C 259.965 46.875,259.558 46.500,259.513 46.500 C 259.467 46.500,259.799 46.875,260.250 47.333 M149.833 47.417 C 150.144 47.737,150.436 48.000,150.482 48.000 C 150.528 48.000,150.311 47.737,150.000 47.417 C 149.689 47.096,149.397 46.833,149.351 46.833 C 149.305 46.833,149.522 47.096,149.833 47.417 M193.500 46.885 C 193.500 46.914,193.744 47.158,194.042 47.427 L 194.583 47.917 194.094 47.375 C 193.638 46.870,193.500 46.757,193.500 46.885 M206.240 47.375 L 205.750 47.917 206.292 47.427 C 206.797 46.971,206.910 46.833,206.781 46.833 C 206.752 46.833,206.509 47.077,206.240 47.375 M250.324 47.458 L 249.750 48.083 250.375 47.509 C 250.719 47.193,251.000 46.912,251.000 46.884 C 251.000 46.757,250.859 46.877,250.324 47.458 M133.542 49.948 C 133.702 49.990,133.965 49.990,134.125 49.948 C 134.285 49.906,134.154 49.872,133.833 49.872 C 133.512 49.872,133.381 49.906,133.542 49.948 M155.708 49.948 C 155.869 49.990,156.131 49.990,156.292 49.948 C 156.452 49.906,156.321 49.872,156.000 49.872 C 155.679 49.872,155.548 49.906,155.708 49.948 M199.875 49.948 C 200.035 49.990,200.298 49.990,200.458 49.948 C 200.619 49.906,200.487 49.872,200.167 49.872 C 199.846 49.872,199.715 49.906,199.875 49.948 M244.042 49.948 C 244.202 49.990,244.465 49.990,244.625 49.948 C 244.785 49.906,244.654 49.872,244.333 49.872 C 244.012 49.872,243.881 49.906,244.042 49.948 M266.208 49.948 C 266.369 49.990,266.631 49.990,266.792 49.948 C 266.952 49.906,266.821 49.872,266.500 49.872 C 266.179 49.872,266.048 49.906,266.208 49.948 M133.292 54.621 C 133.590 54.658,134.077 54.658,134.375 54.621 C 134.673 54.584,134.429 54.553,133.833 54.553 C 133.237 54.553,132.994 54.584,133.292 54.621 M155.458 54.621 C 155.756 54.658,156.244 54.658,156.542 54.621 C 156.840 54.584,156.596 54.553,156.000 54.553 C 155.404 54.553,155.160 54.584,155.458 54.621 M177.458 54.621 C 177.756 54.658,178.244 54.658,178.542 54.621 C 178.840 54.584,178.596 54.553,178.000 54.553 C 177.404 54.553,177.160 54.584,177.458 54.621 M199.625 54.621 C 199.923 54.658,200.410 54.658,200.708 54.621 C 201.006 54.584,200.762 54.553,200.167 54.553 C 199.571 54.553,199.327 54.584,199.625 54.621 M221.792 54.621 C 222.090 54.658,222.577 54.658,222.875 54.621 C 223.173 54.584,222.929 54.553,222.333 54.553 C 221.737 54.553,221.494 54.584,221.792 54.621 M243.792 54.621 C 244.090 54.658,244.577 54.658,244.875 54.621 C 245.173 54.584,244.929 54.553,244.333 54.553 C 243.737 54.553,243.494 54.584,243.792 54.621 M265.958 54.621 C 266.256 54.658,266.744 54.658,267.042 54.621 C 267.340 54.584,267.096 54.553,266.500 54.553 C 265.904 54.553,265.660 54.584,265.958 54.621 M181.347 55.229 C 181.519 55.382,182.500 55.833,182.500 55.759 C 182.500 55.663,181.576 55.167,181.397 55.167 C 181.332 55.167,181.309 55.195,181.347 55.229 M218.292 55.429 C 217.645 55.779,217.719 55.900,218.375 55.566 C 219.003 55.247,219.114 55.164,218.903 55.173 C 218.819 55.177,218.544 55.292,218.292 55.429 M150.240 56.708 L 149.750 57.250 150.292 56.760 C 150.590 56.491,150.833 56.248,150.833 56.219 C 150.833 56.090,150.696 56.203,150.240 56.708 M161.993 57.042 C 162.684 57.778,162.833 57.910,162.833 57.785 C 162.833 57.758,162.477 57.402,162.042 56.993 L 161.250 56.250 161.993 57.042 M238.167 57.083 C 237.762 57.496,237.468 57.833,237.514 57.833 C 237.560 57.833,237.928 57.496,238.333 57.083 C 238.738 56.671,239.032 56.333,238.986 56.333 C 238.940 56.333,238.572 56.671,238.167 57.083 M250.417 57.167 C 250.868 57.625,251.275 58.000,251.321 58.000 C 251.367 58.000,251.035 57.625,250.583 57.167 C 250.132 56.708,249.725 56.333,249.679 56.333 C 249.633 56.333,249.965 56.708,250.417 57.167 M127.740 57.042 L 127.250 57.583 127.792 57.094 C 128.090 56.825,128.333 56.581,128.333 56.552 C 128.333 56.423,128.196 56.537,127.740 57.042 M272.000 56.552 C 272.000 56.581,272.244 56.825,272.542 57.094 L 273.083 57.583 272.594 57.042 C 272.138 56.537,272.000 56.423,272.000 56.552 M207.783 59.248 C 207.935 59.568,208.089 59.800,208.125 59.763 C 208.202 59.687,207.696 58.667,207.582 58.667 C 207.540 58.667,207.630 58.928,207.783 59.248 M186.724 63.250 C 186.724 63.983,186.754 64.263,186.789 63.871 C 186.824 63.479,186.824 62.879,186.788 62.537 C 186.752 62.196,186.723 62.517,186.724 63.250 M213.557 63.250 C 213.558 63.983,213.587 64.263,213.622 63.871 C 213.657 63.479,213.657 62.879,213.621 62.537 C 213.585 62.196,213.557 62.517,213.557 63.250 M142.552 63.250 C 142.553 63.800,142.584 64.005,142.621 63.705 C 142.658 63.406,142.657 62.956,142.619 62.705 C 142.581 62.455,142.551 62.700,142.552 63.250 M257.720 63.333 C 257.720 63.929,257.750 64.173,257.787 63.875 C 257.824 63.577,257.824 63.090,257.787 62.792 C 257.750 62.494,257.720 62.737,257.720 63.333 M147.205 63.333 C 147.205 63.654,147.240 63.785,147.282 63.625 C 147.323 63.465,147.323 63.202,147.282 63.042 C 147.240 62.881,147.205 63.012,147.205 63.333 M127.660 69.375 C 128.350 70.111,128.500 70.243,128.500 70.118 C 128.500 70.091,128.144 69.735,127.708 69.326 L 126.917 68.583 127.660 69.375 M272.500 69.417 C 272.095 69.829,271.801 70.167,271.847 70.167 C 271.893 70.167,272.262 69.829,272.667 69.417 C 273.072 69.004,273.365 68.667,273.319 68.667 C 273.274 68.667,272.905 69.004,272.500 69.417 M171.917 69.500 C 172.275 69.867,172.605 70.167,172.651 70.167 C 172.697 70.167,172.441 69.867,172.083 69.500 C 171.725 69.133,171.395 68.833,171.349 68.833 C 171.303 68.833,171.559 69.133,171.917 69.500 M184.158 69.458 L 183.583 70.083 184.208 69.509 C 184.552 69.193,184.833 68.912,184.833 68.884 C 184.833 68.757,184.692 68.877,184.158 69.458 M216.083 69.500 C 216.441 69.867,216.772 70.167,216.818 70.167 C 216.863 70.167,216.608 69.867,216.250 69.500 C 215.892 69.133,215.562 68.833,215.516 68.833 C 215.470 68.833,215.725 69.133,216.083 69.500 M228.242 69.542 L 227.583 70.250 228.292 69.591 C 228.950 68.978,229.077 68.833,228.950 68.833 C 228.923 68.833,228.605 69.152,228.242 69.542 M260.167 69.417 C 260.478 69.737,260.770 70.000,260.815 70.000 C 260.861 70.000,260.644 69.737,260.333 69.417 C 260.022 69.096,259.730 68.833,259.685 68.833 C 259.639 68.833,259.856 69.096,260.167 69.417 M139.906 69.542 L 139.417 70.083 139.958 69.594 C 140.256 69.325,140.500 69.081,140.500 69.052 C 140.500 68.923,140.362 69.037,139.906 69.542 M117.632 75.957 C 118.208 75.990,119.108 75.989,119.632 75.956 C 120.155 75.923,119.683 75.897,118.583 75.897 C 117.483 75.897,117.055 75.924,117.632 75.957 M280.714 75.957 C 281.245 75.990,282.070 75.990,282.548 75.956 C 283.026 75.922,282.592 75.895,281.583 75.896 C 280.575 75.896,280.184 75.924,280.714 75.957 M127.667 79.250 C 127.262 79.662,126.968 80.000,127.014 80.000 C 127.060 80.000,127.428 79.662,127.833 79.250 C 128.238 78.837,128.532 78.500,128.486 78.500 C 128.440 78.500,128.072 78.837,127.667 79.250 M228.326 79.208 C 229.017 79.944,229.167 80.077,229.167 79.951 C 229.167 79.925,228.810 79.568,228.375 79.160 L 227.583 78.417 228.326 79.208 M272.493 79.208 C 273.184 79.944,273.333 80.077,273.333 79.951 C 273.333 79.925,272.977 79.568,272.542 79.160 L 271.750 78.417 272.493 79.208 M139.500 78.719 C 139.500 78.748,139.744 78.991,140.042 79.260 L 140.583 79.750 140.094 79.208 C 139.638 78.703,139.500 78.590,139.500 78.719 M215.991 79.292 L 215.417 79.917 216.042 79.342 C 216.385 79.026,216.667 78.745,216.667 78.717 C 216.667 78.590,216.526 78.710,215.991 79.292 M260.240 79.208 L 259.750 79.750 260.292 79.260 C 260.590 78.991,260.833 78.748,260.833 78.719 C 260.833 78.590,260.696 78.703,260.240 79.208 M117.632 81.790 C 118.208 81.823,119.108 81.823,119.632 81.790 C 120.155 81.757,119.683 81.730,118.583 81.730 C 117.483 81.731,117.055 81.758,117.632 81.790 M280.714 81.790 C 281.245 81.823,282.070 81.823,282.548 81.789 C 283.026 81.756,282.592 81.729,281.583 81.729 C 280.575 81.729,280.184 81.757,280.714 81.790 M213.557 85.417 C 213.558 86.150,213.587 86.429,213.622 86.037 C 213.657 85.645,213.657 85.045,213.621 84.704 C 213.585 84.363,213.557 84.683,213.557 85.417 M142.552 85.417 C 142.553 85.967,142.584 86.172,142.621 85.872 C 142.658 85.572,142.657 85.122,142.619 84.872 C 142.581 84.622,142.551 84.867,142.552 85.417 M238.160 91.542 C 238.850 92.278,239.000 92.410,239.000 92.285 C 239.000 92.258,238.644 91.902,238.208 91.493 L 237.417 90.750 238.160 91.542 M127.667 91.583 C 127.978 91.904,128.270 92.167,128.315 92.167 C 128.361 92.167,128.144 91.904,127.833 91.583 C 127.522 91.263,127.230 91.000,127.185 91.000 C 127.139 91.000,127.356 91.263,127.667 91.583 M272.406 91.708 L 271.917 92.250 272.458 91.760 C 272.963 91.304,273.077 91.167,272.948 91.167 C 272.919 91.167,272.675 91.410,272.406 91.708 M133.461 94.121 C 133.761 94.158,134.211 94.157,134.461 94.119 C 134.712 94.081,134.467 94.051,133.917 94.052 C 133.367 94.053,133.162 94.084,133.461 94.121 M199.708 94.119 C 199.960 94.158,200.373 94.158,200.625 94.119 C 200.877 94.081,200.671 94.050,200.167 94.050 C 199.662 94.050,199.456 94.081,199.708 94.119 M221.795 94.121 C 222.094 94.158,222.544 94.157,222.795 94.119 C 223.045 94.081,222.800 94.051,222.250 94.052 C 221.700 94.053,221.495 94.084,221.795 94.121 M243.875 94.119 C 244.127 94.158,244.540 94.158,244.792 94.119 C 245.044 94.081,244.838 94.050,244.333 94.050 C 243.829 94.050,243.623 94.081,243.875 94.119 M265.961 94.121 C 266.261 94.158,266.711 94.157,266.961 94.119 C 267.212 94.081,266.967 94.051,266.417 94.052 C 265.867 94.053,265.662 94.084,265.961 94.121 M199.792 98.784 C 199.998 98.824,200.335 98.824,200.542 98.784 C 200.748 98.745,200.579 98.712,200.167 98.712 C 199.754 98.712,199.585 98.745,199.792 98.784 M221.960 98.785 C 222.168 98.824,222.468 98.823,222.627 98.781 C 222.786 98.739,222.617 98.707,222.250 98.709 C 221.883 98.711,221.753 98.745,221.960 98.785 M243.958 98.784 C 244.165 98.824,244.502 98.824,244.708 98.784 C 244.915 98.745,244.746 98.712,244.333 98.712 C 243.921 98.712,243.752 98.745,243.958 98.784 M266.127 98.785 C 266.334 98.824,266.634 98.823,266.794 98.781 C 266.953 98.739,266.783 98.707,266.417 98.709 C 266.050 98.711,265.920 98.745,266.127 98.785 M250.417 101.333 C 250.775 101.700,251.105 102.000,251.151 102.000 C 251.197 102.000,250.941 101.700,250.583 101.333 C 250.225 100.967,249.895 100.667,249.849 100.667 C 249.803 100.667,250.059 100.967,250.417 101.333 M193.824 101.458 L 193.250 102.083 193.875 101.509 C 194.457 100.974,194.577 100.833,194.449 100.833 C 194.422 100.833,194.140 101.115,193.824 101.458 M205.833 100.885 C 205.833 100.914,206.077 101.158,206.375 101.427 L 206.917 101.917 206.427 101.375 C 205.971 100.870,205.833 100.757,205.833 100.885 M213.558 107.500 C 213.558 108.279,213.587 108.598,213.622 108.208 C 213.657 107.819,213.657 107.181,213.622 106.792 C 213.587 106.402,213.558 106.721,213.558 107.500 M253.039 107.500 C 253.039 107.821,253.073 107.952,253.115 107.792 C 253.157 107.631,253.157 107.369,253.115 107.208 C 253.073 107.048,253.039 107.179,253.039 107.500 M260.250 113.667 C 260.701 114.125,261.108 114.500,261.154 114.500 C 261.200 114.500,260.868 114.125,260.417 113.667 C 259.965 113.208,259.558 112.833,259.513 112.833 C 259.467 112.833,259.799 113.208,260.250 113.667 M250.409 113.708 L 249.750 114.417 250.458 113.758 C 251.117 113.145,251.243 113.000,251.117 113.000 C 251.090 113.000,250.771 113.319,250.409 113.708 M193.500 113.219 C 193.500 113.248,193.744 113.491,194.042 113.760 L 194.583 114.250 194.094 113.708 C 193.638 113.203,193.500 113.090,193.500 113.219 M206.240 113.708 L 205.750 114.250 206.292 113.760 C 206.797 113.304,206.910 113.167,206.781 113.167 C 206.752 113.167,206.509 113.410,206.240 113.708 M238.167 123.417 C 237.762 123.829,237.468 124.167,237.514 124.167 C 237.560 124.167,237.928 123.829,238.333 123.417 C 238.738 123.004,239.032 122.667,238.986 122.667 C 238.940 122.667,238.572 123.004,238.167 123.417 M228.333 123.417 C 228.644 123.737,228.936 124.000,228.982 124.000 C 229.028 124.000,228.811 123.737,228.500 123.417 C 228.189 123.096,227.897 122.833,227.851 122.833 C 227.805 122.833,228.022 123.096,228.333 123.417 M272.500 123.417 C 272.811 123.737,273.103 124.000,273.149 124.000 C 273.195 124.000,272.978 123.737,272.667 123.417 C 272.356 123.096,272.064 122.833,272.018 122.833 C 271.972 122.833,272.189 123.096,272.500 123.417 M213.539 128.833 C 213.539 129.154,213.573 129.285,213.615 129.125 C 213.657 128.965,213.657 128.702,213.615 128.542 C 213.573 128.381,213.539 128.512,213.539 128.833 M213.539 130.333 C 213.539 130.654,213.573 130.785,213.615 130.625 C 213.657 130.465,213.657 130.202,213.615 130.042 C 213.573 129.881,213.539 130.012,213.539 130.333 M228.333 135.750 C 227.928 136.162,227.635 136.500,227.681 136.500 C 227.726 136.500,228.095 136.162,228.500 135.750 C 228.905 135.337,229.199 135.000,229.153 135.000 C 229.107 135.000,228.738 135.337,228.333 135.750 M272.500 135.750 C 272.095 136.162,271.801 136.500,271.847 136.500 C 271.893 136.500,272.262 136.162,272.667 135.750 C 273.072 135.337,273.365 135.000,273.319 135.000 C 273.274 135.000,272.905 135.337,272.500 135.750 M216.000 135.750 C 216.311 136.071,216.603 136.333,216.649 136.333 C 216.695 136.333,216.478 136.071,216.167 135.750 C 215.856 135.429,215.564 135.167,215.518 135.167 C 215.472 135.167,215.689 135.429,216.000 135.750 M216.000 145.583 C 215.595 145.996,215.301 146.333,215.347 146.333 C 215.393 146.333,215.762 145.996,216.167 145.583 C 216.572 145.171,216.865 144.833,216.819 144.833 C 216.774 144.833,216.405 145.171,216.000 145.583 M260.242 145.542 L 259.583 146.250 260.292 145.591 C 260.950 144.978,261.077 144.833,260.950 144.833 C 260.923 144.833,260.605 145.152,260.242 145.542 M213.539 150.833 C 213.539 151.154,213.573 151.285,213.615 151.125 C 213.657 150.965,213.657 150.702,213.615 150.542 C 213.573 150.381,213.539 150.512,213.539 150.833 M238.160 157.875 C 238.850 158.611,239.000 158.743,239.000 158.618 C 239.000 158.591,238.644 158.235,238.208 157.826 L 237.417 157.083 238.160 157.875 M221.621 160.454 C 221.917 160.490,222.442 160.491,222.788 160.455 C 223.134 160.419,222.892 160.389,222.250 160.388 C 221.608 160.387,221.325 160.417,221.621 160.454 M243.708 160.455 C 244.052 160.491,244.615 160.491,244.958 160.455 C 245.302 160.419,245.021 160.389,244.333 160.389 C 243.646 160.389,243.365 160.419,243.708 160.455 M265.788 160.454 C 266.084 160.490,266.609 160.491,266.955 160.455 C 267.300 160.419,267.058 160.389,266.417 160.388 C 265.775 160.387,265.492 160.417,265.788 160.454 M161.042 165.125 C 182.560 165.148,217.773 165.148,239.292 165.125 C 260.810 165.102,243.204 165.083,200.167 165.083 C 157.129 165.083,139.523 165.102,161.042 165.125 M0.000 191.917 L 0.000 204.833 200.000 204.833 L 400.000 204.833 400.000 191.917 L 400.000 179.000 200.000 179.000 L 0.000 179.000 0.000 191.917 " stroke="none" fill="#645a7e" fill-rule="evenodd"></path><path id="path4" d="M112.964 71.456 C 113.448 71.490,114.198 71.490,114.631 71.456 C 115.063 71.421,114.667 71.394,113.750 71.394 C 112.833 71.395,112.480 71.423,112.964 71.456 M285.464 71.456 C 285.948 71.490,286.698 71.490,287.131 71.456 C 287.563 71.421,287.167 71.394,286.250 71.394 C 285.333 71.395,284.980 71.423,285.464 71.456 M154.500 76.778 C 149.621 77.554,146.209 82.944,147.599 87.678 C 149.498 94.144,157.423 96.217,162.153 91.487 C 168.067 85.573,162.803 75.458,154.500 76.778 M176.083 76.901 C 169.393 78.554,167.104 86.984,172.082 91.641 C 177.258 96.482,185.507 93.684,186.666 86.694 C 187.654 80.728,181.953 75.451,176.083 76.901 M153.333 99.213 C 147.003 101.379,145.219 109.270,150.043 113.768 C 157.139 120.383,168.015 112.285,163.748 103.564 C 161.942 99.874,157.196 97.891,153.333 99.213 M132.337 121.024 C 129.964 121.417,127.164 123.514,126.111 125.688 C 121.735 134.718,133.446 142.821,140.250 135.471 C 145.884 129.385,140.559 119.661,132.337 121.024 M154.208 121.086 C 147.465 122.551,144.989 130.844,149.843 135.708 C 154.629 140.504,162.702 138.307,164.411 131.743 C 166.008 125.613,160.389 119.743,154.208 121.086 M132.250 143.159 C 125.408 144.646,122.865 152.623,127.622 157.679 C 133.002 163.399,142.587 159.541,142.560 151.667 C 142.542 146.305,137.379 142.045,132.250 143.159 M153.941 143.264 C 148.340 144.620,145.579 151.104,148.482 156.083 C 152.382 162.773,162.465 161.383,164.417 153.887 C 166.048 147.626,160.242 141.739,153.941 143.264 " stroke="none" fill="#e15358" fill-rule="evenodd"></path></g></svg>