<svg id="svg" version="1.1" xmlns="http://www.w3.org/2000/svg" xmlns:xlink="http://www.w3.org/1999/xlink" width="400" height="267.44769874476987" viewBox="0, 0, 400,267.44769874476987"><g id="svgg"><path id="path0" d="M0.000 129.631 L 0.000 259.262 28.027 259.330 L 56.054 259.398 56.127 263.478 L 56.201 267.559 228.101 267.559 L 400.000 267.559 400.000 133.779 L 400.000 0.000 200.000 0.000 L 0.000 0.000 0.000 129.631 M12.662 6.899 C 13.301 7.474,13.679 8.432,13.476 8.961 C 13.250 9.550,12.718 9.456,12.001 8.700 C 11.247 7.905,10.033 7.620,9.027 8.002 C 7.414 8.616,8.715 10.075,11.294 10.543 C 13.280 10.903,14.508 12.879,13.800 14.574 C 12.519 17.640,6.421 17.045,6.421 13.854 C 6.421 12.827,7.262 12.867,8.096 13.932 C 9.210 15.355,12.308 15.278,12.308 13.827 C 12.308 12.963,11.674 12.497,9.672 11.888 C 6.661 10.972,5.680 9.157,7.237 7.384 C 8.392 6.069,11.437 5.796,12.662 6.899 M53.378 11.371 L 53.378 16.187 52.575 16.187 L 51.773 16.187 51.639 12.843 C 51.497 9.301,51.567 9.453,50.237 9.829 C 49.958 9.908,49.703 9.779,49.599 9.507 C 49.340 8.833,51.819 6.439,52.709 6.505 L 53.378 6.555 53.378 11.371 M61.173 6.896 C 63.109 8.464,62.680 10.426,59.808 13.140 C 58.261 14.601,58.370 14.983,60.331 14.983 C 63.749 14.983,63.122 16.413,59.644 16.549 C 55.062 16.728,54.807 16.135,58.022 12.770 C 60.951 9.704,61.289 8.937,60.069 8.137 C 59.170 7.548,58.173 7.836,57.657 8.833 C 57.188 9.739,56.939 9.811,56.340 9.212 C 54.709 7.580,59.301 5.380,61.173 6.896 M348.896 10.702 L 349.030 14.849 350.967 14.928 C 354.907 15.088,354.067 16.589,350.038 16.589 C 346.882 16.589,347.023 16.834,347.023 11.362 C 347.023 6.461,347.046 6.355,348.084 6.476 L 348.763 6.555 348.896 10.702 M356.025 6.826 C 356.205 7.294,355.683 8.027,355.169 8.027 C 354.765 8.027,354.400 7.092,354.647 6.691 C 354.903 6.278,355.850 6.371,356.025 6.826 M390.869 6.968 C 392.402 8.245,391.822 10.840,389.524 12.990 C 387.859 14.547,387.952 14.983,389.949 14.983 C 391.135 14.983,391.474 15.085,391.700 15.507 C 392.125 16.302,391.311 16.589,388.629 16.589 C 384.615 16.589,384.443 15.830,387.708 12.543 C 390.098 10.138,390.567 9.052,389.568 8.243 C 388.719 7.555,388.336 7.633,387.259 8.710 C 386.249 9.720,385.552 9.638,385.552 8.509 C 385.552 6.726,389.281 5.646,390.869 6.968 M20.000 9.362 C 20.478 9.653,20.870 10.004,20.870 10.141 C 20.870 10.279,20.937 10.566,21.019 10.780 C 21.267 11.427,20.345 11.552,19.606 10.971 C 18.251 9.905,16.589 10.865,16.589 12.714 C 16.589 14.854,18.167 15.772,19.520 14.419 C 20.172 13.767,20.415 13.670,20.836 13.895 C 21.475 14.237,21.672 13.829,21.672 12.163 C 21.672 9.184,25.270 7.701,27.380 9.810 C 29.063 11.494,28.681 15.130,26.705 16.227 C 25.365 16.971,23.826 16.690,22.689 15.494 C 21.671 14.424,20.870 14.246,20.870 15.089 C 20.870 16.430,17.824 17.083,16.484 16.029 C 12.977 13.270,16.245 7.072,20.000 9.362 M33.169 9.349 C 33.492 9.952,32.911 10.702,32.121 10.702 C 31.272 10.702,30.973 11.447,30.832 13.914 C 30.700 16.227,30.670 16.321,30.063 16.321 C 29.472 16.321,29.428 16.215,29.384 14.649 C 29.297 11.595,29.466 9.507,29.821 9.231 C 30.505 8.700,32.866 8.783,33.169 9.349 M39.031 9.567 C 39.642 10.078,39.975 10.635,40.111 11.380 C 40.411 13.023,40.314 13.110,38.172 13.114 C 35.997 13.119,35.452 13.338,35.696 14.107 C 36.068 15.282,38.528 15.340,38.528 14.174 C 38.528 13.822,39.789 13.840,40.009 14.195 C 40.401 14.830,38.975 16.301,37.796 16.478 C 35.521 16.820,34.148 15.887,33.833 13.786 C 33.252 9.913,36.392 7.364,39.031 9.567 M43.211 9.766 C 43.211 10.443,43.106 10.569,42.545 10.569 C 41.855 10.569,41.552 9.971,41.849 9.196 C 42.146 8.423,43.211 8.868,43.211 9.766 M355.677 9.167 C 356.078 9.460,356.128 9.936,356.062 12.846 L 355.987 16.187 355.318 16.187 L 354.649 16.187 354.571 13.110 C 354.467 8.965,354.625 8.398,355.677 9.167 M359.038 11.025 C 360.089 14.026,359.982 13.931,360.645 12.439 C 360.972 11.705,361.305 10.779,361.386 10.382 C 361.562 9.515,362.386 8.702,362.818 8.968 C 363.240 9.229,363.013 10.775,362.289 12.575 C 361.963 13.385,361.584 14.425,361.446 14.887 C 360.948 16.553,359.406 16.864,358.973 15.385 C 358.844 14.943,358.590 14.221,358.408 13.779 C 357.212 10.881,356.820 9.326,357.220 9.079 C 357.849 8.690,358.442 9.325,359.038 11.025 M369.343 9.762 C 371.445 11.864,370.984 13.055,368.026 13.165 C 365.518 13.258,364.885 13.986,366.559 14.851 C 367.451 15.312,367.411 15.325,369.098 14.071 C 370.167 13.277,370.522 14.341,369.565 15.472 C 367.490 17.927,363.880 16.323,363.880 12.947 C 363.880 9.253,367.009 7.428,369.343 9.762 M375.836 9.411 C 377.105 10.603,376.414 11.749,374.989 10.815 C 374.285 10.354,373.212 10.388,373.051 10.877 C 372.937 11.222,374.163 11.906,375.372 12.171 C 376.452 12.408,377.365 13.862,377.014 14.786 C 376.082 17.239,371.371 17.146,371.371 14.674 C 371.371 13.708,371.949 13.676,373.025 14.582 C 373.945 15.356,374.282 15.402,374.999 14.853 C 375.631 14.368,374.797 13.531,373.378 13.225 C 371.479 12.817,370.708 10.774,371.953 9.449 C 372.761 8.589,374.938 8.568,375.836 9.411 M379.950 9.396 C 380.321 10.090,379.748 10.820,379.044 10.550 C 378.523 10.350,378.438 9.205,378.930 9.007 C 379.516 8.770,379.640 8.817,379.950 9.396 M23.813 10.970 C 22.097 12.686,24.201 16.256,26.087 14.829 C 26.772 14.311,26.871 11.108,26.215 10.693 C 25.548 10.271,24.376 10.406,23.813 10.970 M36.161 10.665 C 35.395 11.165,35.932 11.906,37.061 11.906 C 38.020 11.906,38.127 11.839,38.127 11.237 C 38.127 10.517,36.924 10.167,36.161 10.665 M366.162 10.797 C 365.306 11.423,365.830 12.040,367.216 12.040 C 368.316 12.040,368.428 11.981,368.428 11.400 C 368.428 10.440,367.124 10.093,366.162 10.797 M43.295 15.585 C 43.371 16.246,43.297 16.321,42.560 16.321 C 41.878 16.321,41.739 16.215,41.739 15.697 C 41.739 14.426,43.150 14.325,43.295 15.585 M379.936 15.256 C 380.308 15.952,380.070 16.321,379.248 16.321 C 378.187 16.321,378.378 14.856,379.455 14.737 C 379.561 14.725,379.777 14.959,379.936 15.256 M62.234 38.853 C 67.742 40.960,69.290 48.140,65.134 52.308 C 61.834 55.619,56.833 55.677,53.514 52.443 C 47.115 46.211,53.886 35.658,62.234 38.853 M300.138 58.261 L 300.067 66.488 268.829 66.556 L 237.592 66.624 237.592 58.329 L 237.592 50.033 268.900 50.033 L 300.208 50.033 300.138 58.261 M86.439 75.193 C 86.988 75.487,87.264 90.607,86.735 91.439 C 86.566 91.706,80.115 91.761,55.368 91.707 L 24.214 91.639 24.143 83.644 C 24.093 77.969,24.160 75.543,24.377 75.283 C 24.764 74.816,85.569 74.728,86.439 75.193 M299.870 75.139 C 300.134 75.307,300.193 77.161,300.138 83.497 L 300.067 91.639 268.896 91.639 L 237.726 91.639 237.655 83.497 C 237.600 77.161,237.659 75.307,237.922 75.139 C 238.109 75.021,252.047 74.925,268.896 74.925 C 285.746 74.925,299.684 75.021,299.870 75.139 " stroke="none" fill="#ebebec" fill-rule="evenodd"></path><path id="path1" d="M237.592 58.329 L 237.592 66.624 268.829 66.556 L 300.067 66.488 300.138 58.261 L 300.208 50.033 268.900 50.033 L 237.592 50.033 237.592 58.329 M24.377 75.283 C 24.160 75.543,24.093 77.969,24.143 83.644 L 24.214 91.639 55.368 91.707 C 80.115 91.761,86.566 91.706,86.735 91.439 C 87.264 90.607,86.988 75.487,86.439 75.193 C 85.569 74.728,24.764 74.816,24.377 75.283 M237.922 75.139 C 237.659 75.307,237.600 77.161,237.655 83.497 L 237.726 91.639 268.896 91.639 L 300.067 91.639 300.138 83.497 C 300.193 77.161,300.134 75.307,299.870 75.139 C 299.684 75.021,285.746 74.925,268.896 74.925 C 252.047 74.925,238.109 75.021,237.922 75.139 M0.000 263.410 L 0.000 267.559 28.101 267.559 L 56.201 267.559 56.127 263.478 L 56.054 259.398 28.027 259.330 L 0.000 259.262 0.000 263.410 " stroke="none" fill="#cc36fc" fill-rule="evenodd"></path><path id="path2" d="M8.642 6.327 C 7.828 6.504,6.421 8.174,6.421 8.963 C 6.421 10.087,7.786 11.314,9.672 11.888 C 11.674 12.497,12.308 12.963,12.308 13.827 C 12.308 15.278,9.210 15.355,8.096 13.932 C 7.262 12.867,6.421 12.827,6.421 13.854 C 6.421 17.045,12.519 17.640,13.800 14.574 C 14.508 12.879,13.280 10.903,11.294 10.543 C 8.715 10.075,7.414 8.616,9.027 8.002 C 10.033 7.620,11.247 7.905,12.001 8.700 C 12.718 9.456,13.250 9.550,13.476 8.961 C 14.111 7.304,11.267 5.754,8.642 6.327 M50.732 7.755 C 49.416 9.063,49.161 10.133,50.237 9.829 C 51.567 9.453,51.497 9.301,51.639 12.843 L 51.773 16.187 52.575 16.187 L 53.378 16.187 53.378 11.371 L 53.378 6.555 52.709 6.505 C 52.229 6.470,51.670 6.823,50.732 7.755 M56.742 7.419 C 55.793 8.570,55.776 8.647,56.340 9.212 C 56.939 9.811,57.188 9.739,57.657 8.833 C 58.173 7.836,59.170 7.548,60.069 8.137 C 61.289 8.937,60.951 9.704,58.022 12.770 C 54.807 16.135,55.062 16.728,59.644 16.549 C 63.122 16.413,63.749 14.983,60.331 14.983 C 58.370 14.983,58.261 14.601,59.808 13.140 C 62.169 10.909,62.804 9.432,62.042 7.942 C 61.076 6.052,58.110 5.759,56.742 7.419 M347.214 6.587 C 346.869 6.932,346.990 15.913,347.344 16.268 C 347.747 16.670,352.195 16.703,352.931 16.310 C 354.073 15.698,353.102 15.015,350.967 14.928 L 349.030 14.849 348.896 10.702 L 348.763 6.555 348.084 6.476 C 347.710 6.432,347.319 6.483,347.214 6.587 M354.647 6.691 C 354.400 7.092,354.765 8.027,355.169 8.027 C 355.683 8.027,356.205 7.294,356.025 6.826 C 355.850 6.371,354.903 6.278,354.647 6.691 M386.334 7.203 C 385.484 8.053,385.334 8.851,385.930 9.346 C 386.234 9.597,386.498 9.471,387.259 8.710 C 388.336 7.633,388.719 7.555,389.568 8.243 C 390.567 9.052,390.098 10.138,387.708 12.543 C 384.443 15.830,384.615 16.589,388.629 16.589 C 391.311 16.589,392.125 16.302,391.700 15.507 C 391.474 15.085,391.135 14.983,389.949 14.983 C 387.952 14.983,387.859 14.547,389.524 12.990 C 392.842 9.885,392.398 6.452,388.675 6.430 C 387.303 6.422,387.022 6.515,386.334 7.203 M16.536 9.441 C 13.785 11.698,15.011 16.589,18.328 16.589 C 19.534 16.589,20.870 15.801,20.870 15.089 C 20.870 14.246,21.671 14.424,22.689 15.494 C 23.826 16.690,25.365 16.971,26.705 16.227 C 28.681 15.130,29.063 11.494,27.380 9.810 C 25.270 7.701,21.672 9.184,21.672 12.163 C 21.672 13.829,21.475 14.237,20.836 13.895 C 20.415 13.670,20.172 13.767,19.520 14.419 C 18.167 15.772,16.589 14.854,16.589 12.714 C 16.589 10.865,18.251 9.905,19.606 10.971 C 20.345 11.552,21.267 11.427,21.019 10.780 C 20.937 10.566,20.870 10.279,20.870 10.141 C 20.870 9.016,17.682 8.501,16.536 9.441 M29.821 9.231 C 29.466 9.507,29.297 11.595,29.384 14.649 C 29.428 16.215,29.472 16.321,30.063 16.321 C 30.670 16.321,30.700 16.227,30.832 13.914 C 30.973 11.447,31.272 10.702,32.121 10.702 C 32.911 10.702,33.492 9.952,33.169 9.349 C 32.866 8.783,30.505 8.700,29.821 9.231 M34.911 9.718 C 32.917 11.712,33.548 15.867,35.937 16.466 C 37.841 16.944,40.717 15.340,40.009 14.195 C 39.789 13.840,38.528 13.822,38.528 14.174 C 38.528 15.340,36.068 15.282,35.696 14.107 C 35.452 13.338,35.997 13.119,38.172 13.114 C 40.314 13.110,40.411 13.023,40.111 11.380 C 39.658 8.904,36.677 7.951,34.911 9.718 M41.849 9.196 C 41.552 9.971,41.855 10.569,42.545 10.569 C 43.106 10.569,43.211 10.443,43.211 9.766 C 43.211 8.868,42.146 8.423,41.849 9.196 M354.643 9.431 C 354.561 9.763,354.528 11.418,354.571 13.110 L 354.649 16.187 355.318 16.187 L 355.987 16.187 356.062 12.846 C 356.128 9.936,356.078 9.460,355.677 9.167 C 355.025 8.690,354.814 8.744,354.643 9.431 M357.220 9.079 C 356.820 9.326,357.212 10.881,358.408 13.779 C 358.590 14.221,358.844 14.943,358.973 15.385 C 359.406 16.864,360.948 16.553,361.446 14.887 C 361.584 14.425,361.963 13.385,362.289 12.575 C 363.013 10.775,363.240 9.229,362.818 8.968 C 362.386 8.702,361.562 9.515,361.386 10.382 C 361.305 10.779,360.972 11.705,360.645 12.439 C 359.982 13.931,360.089 14.026,359.038 11.025 C 358.442 9.325,357.849 8.690,357.220 9.079 M365.474 9.266 C 362.948 10.835,363.450 15.800,366.204 16.491 C 367.775 16.886,370.301 15.586,370.301 14.383 C 370.301 14.027,369.453 13.807,369.098 14.071 C 367.411 15.325,367.451 15.312,366.559 14.851 C 364.885 13.986,365.518 13.258,368.026 13.165 C 370.502 13.073,370.699 12.951,370.455 11.655 C 370.032 9.395,367.342 8.106,365.474 9.266 M371.953 9.449 C 370.708 10.774,371.479 12.817,373.378 13.225 C 374.797 13.531,375.631 14.368,374.999 14.853 C 374.282 15.402,373.945 15.356,373.025 14.582 C 371.949 13.676,371.371 13.708,371.371 14.674 C 371.371 17.146,376.082 17.239,377.014 14.786 C 377.365 13.862,376.452 12.408,375.372 12.171 C 374.163 11.906,372.937 11.222,373.051 10.877 C 373.212 10.388,374.285 10.354,374.989 10.815 C 375.917 11.423,376.455 11.350,376.455 10.615 C 376.455 8.932,373.225 8.095,371.953 9.449 M378.930 9.007 C 378.438 9.205,378.523 10.350,379.044 10.550 C 379.748 10.820,380.321 10.090,379.950 9.396 C 379.640 8.817,379.516 8.770,378.930 9.007 M26.215 10.693 C 26.871 11.108,26.772 14.311,26.087 14.829 C 24.774 15.823,23.278 14.700,23.278 12.721 C 23.278 10.863,24.810 9.805,26.215 10.693 M38.127 11.237 C 38.127 12.119,36.065 12.273,35.897 11.403 C 35.772 10.754,36.314 10.411,37.324 10.499 C 37.984 10.556,38.127 10.688,38.127 11.237 M368.005 10.597 C 368.238 10.687,368.428 11.048,368.428 11.400 C 368.428 12.211,366.137 12.388,365.834 11.600 C 365.531 10.809,366.904 10.175,368.005 10.597 M41.929 14.883 C 41.367 15.444,41.752 16.321,42.560 16.321 C 43.297 16.321,43.371 16.246,43.295 15.585 C 43.212 14.864,42.377 14.435,41.929 14.883 M378.930 14.893 C 378.273 15.158,378.533 16.321,379.248 16.321 C 380.070 16.321,380.308 15.952,379.936 15.256 C 379.640 14.703,379.513 14.657,378.930 14.893 " stroke="none" fill="#35a5e0" fill-rule="evenodd"></path><path id="path3" d="M56.223 38.861 C 50.645 41.058,49.210 48.251,53.514 52.443 C 58.756 57.550,67.478 53.872,67.478 46.555 C 67.478 40.721,61.638 36.728,56.223 38.861 " stroke="none" fill="#fcfc0c" fill-rule="evenodd"></path></g></svg>