<svg id="svg" version="1.1" xmlns="http://www.w3.org/2000/svg" xmlns:xlink="http://www.w3.org/1999/xlink" width="400" height="293.33333333333337" viewBox="0, 0, 400,293.33333333333337"><g id="svgg"><path id="path0" d="M87.403 78.855 C 87.735 78.919,88.215 78.917,88.470 78.850 C 88.725 78.783,88.453 78.731,87.867 78.734 C 87.280 78.737,87.071 78.791,87.403 78.855 M56.057 91.259 L 56.000 94.651 52.600 94.734 L 49.200 94.817 52.608 94.875 C 56.630 94.944,56.312 95.282,56.200 91.051 L 56.115 87.867 56.057 91.259 M58.524 102.267 C 58.524 110.187,58.558 113.388,58.600 109.381 C 58.641 105.374,58.641 98.894,58.600 94.981 C 58.558 91.068,58.524 94.347,58.524 102.267 M117.172 102.000 C 117.172 104.053,117.214 104.858,117.265 103.788 C 117.316 102.719,117.315 101.039,117.264 100.055 C 117.213 99.071,117.171 99.947,117.172 102.000 M56.104 113.200 C 56.104 115.107,56.147 115.852,56.198 114.856 C 56.249 113.859,56.249 112.299,56.197 111.389 C 56.145 110.478,56.103 111.293,56.104 113.200 M39.916 132.733 C 42.729 132.776,47.409 132.776,50.316 132.733 C 53.222 132.690,50.920 132.655,45.200 132.655 C 39.480 132.655,37.102 132.690,39.916 132.733 M62.217 132.733 C 64.536 132.777,68.256 132.777,70.483 132.733 C 72.711 132.688,70.813 132.652,66.267 132.652 C 61.720 132.652,59.897 132.688,62.217 132.733 M78.610 132.731 C 79.533 132.783,80.973 132.783,81.810 132.730 C 82.648 132.677,81.893 132.635,80.133 132.635 C 78.373 132.636,77.688 132.679,78.610 132.731 M93.000 132.731 C 93.917 132.783,95.417 132.783,96.333 132.731 C 97.250 132.679,96.500 132.636,94.667 132.636 C 92.833 132.636,92.083 132.679,93.000 132.731 M103.133 132.731 C 104.050 132.783,105.550 132.783,106.467 132.731 C 107.383 132.679,106.633 132.636,104.800 132.636 C 102.967 132.636,102.217 132.679,103.133 132.731 M132.059 132.731 L 140.251 132.808 140.337 136.204 L 140.423 139.600 140.412 136.133 L 140.400 132.667 132.133 132.661 L 123.867 132.655 132.059 132.731 M144.333 132.732 C 145.470 132.782,147.330 132.782,148.467 132.732 C 149.603 132.682,148.673 132.641,146.400 132.641 C 144.127 132.641,143.197 132.682,144.333 132.732 M168.531 132.729 L 171.997 132.815 172.065 153.008 L 172.133 173.200 176.867 173.273 L 181.600 173.346 181.600 176.402 L 181.600 179.459 173.333 179.535 L 165.066 179.612 173.400 179.606 L 181.733 179.600 181.733 176.400 L 181.733 173.200 177.002 173.127 L 172.270 173.054 172.202 152.861 L 172.133 132.667 168.600 132.655 L 165.066 132.643 168.531 132.729 M206.733 132.731 C 207.723 132.782,209.343 132.782,210.333 132.731 C 211.323 132.680,210.513 132.638,208.533 132.638 C 206.553 132.638,205.743 132.680,206.733 132.731 M216.744 132.731 C 217.666 132.783,219.106 132.783,219.944 132.730 C 220.781 132.677,220.027 132.635,218.267 132.635 C 216.507 132.636,215.821 132.679,216.744 132.731 M231.410 132.731 C 232.333 132.783,233.773 132.783,234.610 132.730 C 235.448 132.677,234.693 132.635,232.933 132.635 C 231.173 132.636,230.488 132.679,231.410 132.731 M41.464 159.800 L 41.467 179.600 45.000 179.612 L 48.534 179.624 45.069 179.538 L 41.603 179.451 41.532 159.726 L 41.462 140.000 41.464 159.800 M131.059 146.067 L 131.067 152.133 134.267 152.146 L 137.467 152.158 134.338 152.071 L 131.210 151.984 131.131 145.992 L 131.051 140.000 131.059 146.067 M121.425 152.133 C 121.426 153.307,121.473 153.753,121.529 153.126 C 121.585 152.499,121.584 151.539,121.527 150.993 C 121.470 150.447,121.424 150.960,121.425 152.133 M66.867 152.197 C 67.783 152.250,69.283 152.250,70.200 152.197 C 71.117 152.145,70.367 152.103,68.533 152.103 C 66.700 152.103,65.950 152.145,66.867 152.197 M121.425 160.133 C 121.426 161.307,121.473 161.753,121.529 161.126 C 121.585 160.499,121.584 159.539,121.527 158.993 C 121.470 158.447,121.424 158.960,121.425 160.133 M66.867 159.664 C 67.783 159.716,69.283 159.716,70.200 159.664 C 71.117 159.612,70.367 159.569,68.533 159.569 C 66.700 159.569,65.950 159.612,66.867 159.664 M131.053 159.806 C 130.982 159.992,130.958 162.902,131.000 166.272 L 131.077 172.400 131.139 166.075 L 131.200 159.749 134.600 159.666 L 138.000 159.583 134.592 159.525 C 132.037 159.481,131.151 159.552,131.053 159.806 M150.336 159.922 C 150.668 159.986,151.148 159.983,151.403 159.917 C 151.658 159.850,151.387 159.798,150.800 159.801 C 150.213 159.804,150.005 159.858,150.336 159.922 M294.400 172.721 C 290.188 174.718,287.295 181.037,289.589 183.230 C 290.728 184.318,292.237 184.899,293.010 184.547 C 293.349 184.393,293.846 184.267,294.115 184.267 C 295.873 184.267,301.067 179.411,301.067 177.768 C 301.067 177.546,301.187 177.291,301.333 177.200 C 302.085 176.735,301.543 174.063,300.454 172.867 C 299.746 172.090,295.926 171.998,294.400 172.721 M140.324 176.063 L 140.267 179.459 132.067 179.533 L 123.867 179.608 132.075 179.671 C 138.635 179.721,140.310 179.663,140.417 179.384 C 140.491 179.193,140.513 177.603,140.466 175.851 L 140.381 172.667 140.324 176.063 M311.733 173.867 C 311.733 174.013,311.567 174.133,311.364 174.133 C 309.761 174.133,306.256 177.301,304.856 180.015 C 302.187 185.190,306.189 188.849,311.478 186.067 C 318.333 182.460,319.715 173.600,313.423 173.600 C 312.474 173.600,311.733 173.717,311.733 173.867 M61.933 179.666 C 64.243 179.711,68.023 179.711,70.333 179.666 C 72.643 179.622,70.753 179.585,66.133 179.585 C 61.513 179.585,59.623 179.622,61.933 179.666 M78.600 179.664 C 79.517 179.716,81.017 179.716,81.933 179.664 C 82.850 179.612,82.100 179.569,80.267 179.569 C 78.433 179.569,77.683 179.612,78.600 179.664 M93.277 179.664 C 94.200 179.717,95.640 179.716,96.477 179.663 C 97.315 179.611,96.560 179.568,94.800 179.568 C 93.040 179.569,92.355 179.612,93.277 179.664 M103.279 179.665 C 104.422 179.715,106.222 179.715,107.279 179.664 C 108.335 179.614,107.400 179.573,105.200 179.573 C 103.000 179.574,102.135 179.615,103.279 179.665 M144.055 179.664 C 145.039 179.715,146.719 179.716,147.788 179.665 C 148.858 179.614,148.053 179.572,146.000 179.572 C 143.947 179.571,143.071 179.613,144.055 179.664 M157.122 179.664 C 158.105 179.715,159.785 179.716,160.855 179.665 C 161.925 179.614,161.120 179.572,159.067 179.572 C 157.013 179.571,156.138 179.613,157.122 179.664 M206.733 179.664 C 207.723 179.716,209.343 179.716,210.333 179.664 C 211.323 179.613,210.513 179.571,208.533 179.571 C 206.553 179.571,205.743 179.613,206.733 179.664 M216.733 179.664 C 217.650 179.716,219.150 179.716,220.067 179.664 C 220.983 179.612,220.233 179.569,218.400 179.569 C 216.567 179.569,215.817 179.612,216.733 179.664 M231.410 179.664 C 232.333 179.717,233.773 179.716,234.610 179.663 C 235.448 179.611,234.693 179.568,232.933 179.568 C 231.173 179.569,230.488 179.612,231.410 179.664 M191.933 180.188 C 192.263 180.252,192.803 180.252,193.133 180.188 C 193.463 180.125,193.193 180.073,192.533 180.073 C 191.873 180.073,191.603 180.125,191.933 180.188 M279.867 181.225 C 276.330 183.025,273.704 187.226,274.624 189.611 C 274.978 190.529,275.850 191.467,276.349 191.467 C 276.580 191.467,276.843 191.587,276.933 191.733 C 277.259 192.261,278.401 192.060,280.533 191.100 C 281.993 190.443,285.067 187.459,285.067 186.699 C 285.067 186.412,285.212 186.129,285.389 186.070 C 285.605 185.998,285.706 185.311,285.694 183.995 C 285.664 180.680,283.220 179.519,279.867 181.225 M349.867 184.298 C 346.340 184.579,345.941 184.679,345.734 185.332 C 345.476 186.145,345.792 186.400,347.061 186.400 C 349.275 186.400,349.434 186.686,348.443 188.884 C 348.100 189.644,347.595 190.927,347.322 191.733 C 346.721 193.509,346.532 193.767,346.078 193.423 C 344.643 192.338,341.500 192.503,338.667 193.812 C 335.472 195.288,330.933 200.334,330.933 202.409 C 330.933 202.680,330.813 202.976,330.667 203.067 C 330.520 203.157,330.400 203.524,330.400 203.882 L 330.400 204.533 329.867 204.000 C 329.132 203.266,329.126 203.268,327.189 205.056 C 324.578 207.464,321.215 208.575,320.053 207.413 C 319.012 206.372,320.156 203.200,321.574 203.200 C 321.979 203.200,322.393 203.118,322.494 203.017 C 322.760 202.751,324.588 202.142,325.133 202.137 C 325.390 202.135,325.600 202.013,325.600 201.867 C 325.600 201.720,325.900 201.600,326.267 201.600 C 326.633 201.600,326.933 201.499,326.933 201.376 C 326.933 201.253,327.409 200.995,327.991 200.803 C 330.095 200.109,332.533 197.347,332.533 195.659 C 332.533 193.752,328.785 191.925,326.613 192.772 C 326.276 192.904,325.460 193.166,324.800 193.355 C 324.140 193.545,323.281 193.917,322.892 194.183 C 322.503 194.449,322.067 194.667,321.924 194.667 C 321.201 194.667,317.070 199.311,316.276 201.017 C 315.819 201.998,315.360 202.932,315.256 203.093 C 313.600 205.658,311.489 207.733,310.537 207.733 C 310.233 207.733,310.430 206.704,310.933 205.663 C 311.227 205.056,311.467 204.433,311.467 204.280 C 311.467 204.126,311.587 204.000,311.733 204.000 C 311.880 204.000,312.000 203.868,312.000 203.707 C 312.000 203.546,312.461 202.436,313.024 201.241 C 316.300 194.285,314.123 190.948,307.933 193.435 C 307.530 193.598,307.200 193.821,307.200 193.932 C 307.200 194.043,307.072 194.133,306.916 194.133 C 306.759 194.133,306.189 194.551,305.649 195.061 L 304.667 195.989 304.501 195.196 C 304.091 193.238,301.713 192.121,299.486 192.841 C 297.498 193.483,296.709 193.958,295.298 195.357 C 293.549 197.092,293.600 197.083,293.600 195.650 C 293.600 191.905,288.208 191.744,285.246 195.401 C 284.978 195.732,284.618 196.152,284.446 196.335 C 283.812 197.005,283.121 198.609,283.283 199.032 C 283.626 199.925,284.875 199.557,285.657 198.333 C 286.601 196.855,288.098 195.200,288.490 195.200 C 288.661 195.200,288.800 195.080,288.800 194.933 C 288.800 194.787,288.920 194.667,289.067 194.667 C 289.213 194.667,289.333 195.327,289.333 196.133 C 289.333 196.940,289.213 197.600,289.067 197.600 C 288.920 197.600,288.800 197.953,288.800 198.384 C 288.800 198.816,288.680 199.243,288.533 199.333 C 288.387 199.424,288.267 199.780,288.267 200.124 C 288.267 200.468,288.010 201.271,287.695 201.908 C 287.381 202.545,287.021 203.337,286.895 203.667 C 286.770 203.997,286.531 204.597,286.364 205.000 C 286.198 205.403,285.944 206.033,285.800 206.400 C 285.656 206.767,285.432 207.275,285.302 207.530 C 284.558 208.992,284.917 209.333,287.200 209.333 C 289.156 209.333,289.333 209.289,289.333 208.800 C 289.333 208.507,289.453 208.267,289.600 208.267 C 289.747 208.267,289.867 208.027,289.867 207.733 C 289.867 207.440,289.987 207.200,290.133 207.200 C 290.280 207.200,290.400 206.960,290.400 206.667 C 290.400 206.373,290.520 206.133,290.667 206.133 C 290.813 206.133,290.933 205.893,290.933 205.600 C 290.933 205.307,291.023 205.066,291.133 205.065 C 291.373 205.062,292.000 203.771,292.000 203.280 C 292.000 203.089,292.120 202.933,292.267 202.933 C 292.413 202.933,292.533 202.693,292.533 202.400 C 292.533 202.107,292.653 201.867,292.800 201.867 C 292.947 201.867,293.067 201.687,293.067 201.467 C 293.067 201.247,293.157 201.067,293.268 201.067 C 293.379 201.067,293.620 200.737,293.803 200.333 C 294.557 198.672,297.903 195.200,298.750 195.200 C 298.939 195.200,299.237 195.056,299.413 194.880 C 301.254 193.039,299.002 200.282,295.720 206.759 C 295.434 207.322,295.200 208.132,295.200 208.559 L 295.200 209.333 297.158 209.333 L 299.116 209.333 299.625 208.333 C 299.904 207.783,300.223 207.293,300.333 207.244 C 300.443 207.196,300.533 207.002,300.533 206.814 C 300.533 206.217,303.465 200.722,304.555 199.276 C 306.522 196.666,309.616 194.316,310.426 194.816 C 310.862 195.085,310.442 196.463,309.039 199.372 C 308.321 200.860,307.733 202.210,307.733 202.372 C 307.733 202.534,307.613 202.667,307.467 202.667 C 307.320 202.667,307.200 202.848,307.200 203.070 C 307.200 203.292,307.095 203.682,306.966 203.937 C 305.663 206.517,306.042 208.450,308.048 209.450 C 308.922 209.887,311.200 210.027,311.200 209.644 C 311.200 209.522,311.351 209.422,311.535 209.422 C 312.013 209.422,313.886 208.187,314.635 207.378 L 315.270 206.691 315.838 207.534 C 316.340 208.280,316.988 208.703,319.108 209.668 C 321.371 210.698,326.464 208.792,329.326 205.843 C 330.230 204.910,330.400 204.822,330.400 205.285 C 330.400 205.588,330.520 205.909,330.667 206.000 C 330.813 206.091,330.933 206.350,330.933 206.575 C 330.933 206.801,331.492 207.514,332.176 208.160 C 333.281 209.204,333.790 209.472,334.467 209.365 C 334.577 209.348,334.667 209.453,334.667 209.600 C 334.667 209.747,335.343 209.867,336.169 209.867 C 337.760 209.867,339.733 209.400,339.733 209.024 C 339.733 208.901,339.896 208.800,340.096 208.800 C 340.295 208.800,341.015 208.310,341.696 207.711 C 342.601 206.914,342.933 206.742,342.933 207.070 C 342.933 210.233,347.882 210.672,350.856 207.772 L 351.854 206.800 352.861 207.897 C 355.309 210.565,359.902 210.476,363.063 207.701 C 363.774 207.076,364.000 206.983,364.000 207.315 C 364.000 209.284,367.017 210.473,369.440 209.461 C 372.335 208.251,375.424 203.486,373.733 202.837 C 373.285 202.665,372.533 202.885,372.533 203.189 C 372.533 203.641,369.776 206.986,369.179 207.258 C 368.376 207.624,368.048 207.344,368.477 206.658 C 368.655 206.373,368.800 205.786,368.800 205.353 C 368.800 204.919,368.920 204.491,369.067 204.400 C 369.213 204.309,369.333 203.942,369.333 203.584 C 369.333 203.226,369.427 202.933,369.542 202.933 C 369.656 202.933,369.918 202.363,370.124 201.667 C 370.329 200.970,371.204 198.989,372.068 197.264 C 374.055 193.296,374.044 193.222,371.431 193.123 C 369.543 193.051,369.391 193.086,369.250 193.622 L 369.100 194.198 368.381 193.632 C 367.985 193.321,367.462 193.067,367.217 193.067 C 366.973 193.067,366.640 192.934,366.478 192.771 C 366.193 192.487,365.277 192.533,362.812 192.956 C 361.681 193.151,358.403 194.750,357.372 195.610 C 354.788 197.766,353.528 199.299,352.129 201.988 C 350.217 205.663,348.546 207.733,347.492 207.733 C 346.944 207.733,347.269 205.448,348.033 203.937 C 348.161 203.682,348.267 203.242,348.267 202.959 C 348.267 202.676,348.358 202.404,348.469 202.356 C 348.581 202.307,349.080 201.007,349.578 199.467 C 350.076 197.927,350.585 196.553,350.709 196.413 C 350.832 196.274,350.933 195.942,350.933 195.676 C 350.933 195.410,351.053 194.954,351.200 194.663 C 351.347 194.372,351.587 193.895,351.733 193.604 C 351.880 193.312,352.000 192.839,352.000 192.553 C 352.000 192.266,352.106 191.966,352.235 191.886 C 352.364 191.807,352.534 191.469,352.613 191.137 C 352.885 189.988,353.558 187.861,354.101 186.431 C 354.500 185.380,354.575 184.861,354.381 184.497 C 354.089 183.953,354.154 183.955,349.867 184.298 M328.710 195.085 C 329.243 196.474,323.773 201.067,321.586 201.067 C 321.336 201.067,322.415 198.853,322.733 198.711 C 322.843 198.662,322.933 198.498,322.933 198.346 C 322.933 197.954,324.455 196.265,325.580 195.407 C 326.684 194.567,328.442 194.385,328.710 195.085 M345.082 195.267 C 346.504 196.971,342.781 204.997,339.615 207.049 C 338.401 207.836,336.228 207.999,335.581 207.352 C 335.143 206.914,335.053 204.389,335.467 204.133 C 335.613 204.043,335.733 203.738,335.733 203.457 C 335.733 202.486,337.978 198.712,339.646 196.878 C 341.598 194.732,344.034 194.010,345.082 195.267 M367.144 195.209 C 367.508 195.792,367.324 198.292,366.898 198.555 C 366.771 198.634,366.667 198.931,366.667 199.216 C 366.667 199.500,366.576 199.733,366.465 199.733 C 366.354 199.733,366.094 200.123,365.887 200.600 C 364.135 204.637,360.807 207.733,358.221 207.733 C 355.782 207.733,355.509 205.166,357.597 201.867 C 357.829 201.500,358.185 200.870,358.388 200.467 C 358.591 200.063,358.857 199.733,358.978 199.733 C 359.100 199.733,359.200 199.580,359.200 199.392 C 359.200 198.930,362.307 195.908,363.467 195.241 C 364.755 194.501,366.691 194.484,367.144 195.209 M272.800 195.638 C 272.287 195.844,271.657 196.083,271.400 196.170 C 271.143 196.258,270.933 196.435,270.933 196.564 C 270.933 196.694,270.802 196.800,270.641 196.800 C 270.107 196.800,267.745 199.586,267.589 200.400 C 266.729 204.876,268.892 206.924,272.523 205.072 C 273.869 204.385,276.267 202.224,276.267 201.697 C 276.267 201.497,276.363 201.333,276.480 201.333 C 276.597 201.333,276.853 200.890,277.049 200.347 C 278.289 196.920,275.981 194.363,272.800 195.638 M274.133 209.600 C 274.133 209.747,273.975 209.867,273.781 209.867 C 273.233 209.867,271.231 211.696,270.484 212.878 C 268.299 216.340,271.218 219.345,274.809 217.328 C 277.957 215.560,279.513 211.552,277.667 209.965 C 276.900 209.305,274.133 209.020,274.133 209.600 M323.644 212.711 C 323.547 212.809,323.467 214.009,323.467 215.378 C 323.467 217.953,323.932 218.628,324.983 217.577 C 325.192 217.368,325.323 217.368,325.452 217.577 C 325.764 218.082,326.597 217.890,326.803 217.267 L 327.001 216.667 327.119 217.267 C 327.248 217.920,327.960 218.067,328.480 217.547 C 328.729 217.298,328.800 217.298,328.800 217.547 C 328.800 217.731,329.168 217.864,329.667 217.861 C 330.143 217.858,330.833 217.862,331.200 217.871 C 332.880 217.907,333.504 217.917,334.000 217.915 C 334.589 217.911,335.983 217.727,336.400 217.597 C 336.547 217.551,336.973 217.641,337.347 217.797 C 338.128 218.122,339.467 217.944,339.467 217.516 C 339.467 217.325,339.576 217.336,339.787 217.547 C 340.563 218.323,341.331 217.931,341.378 216.733 L 341.423 215.600 341.527 216.587 C 341.702 218.251,343.467 218.164,343.467 216.491 C 343.467 214.685,340.470 212.973,339.922 214.467 C 339.824 214.733,339.729 214.733,339.447 214.467 C 339.025 214.069,337.434 214.022,337.200 214.400 C 336.801 215.045,336.281 214.663,336.444 213.845 C 336.600 213.066,336.569 213.029,335.838 213.112 C 335.155 213.190,335.076 213.292,335.151 214.000 C 335.220 214.644,335.170 214.735,334.898 214.467 C 334.468 214.043,333.272 214.035,332.853 214.453 C 332.604 214.702,332.533 214.702,332.533 214.453 C 332.533 214.258,332.119 214.133,331.467 214.133 C 330.880 214.133,330.400 214.253,330.400 214.400 C 330.400 214.547,330.301 214.667,330.180 214.667 C 330.058 214.667,330.013 214.296,330.080 213.843 C 330.194 213.065,330.156 213.024,329.400 213.103 C 328.960 213.150,328.403 213.024,328.162 212.824 C 327.627 212.380,326.749 213.025,326.615 213.958 C 326.505 214.727,325.600 214.901,325.600 214.153 C 325.600 213.185,324.202 212.154,323.644 212.711 M345.000 212.905 C 344.497 213.286,344.312 216.838,344.758 217.542 C 345.084 218.054,347.952 218.110,348.145 217.607 C 348.270 217.282,348.334 217.277,348.520 217.578 C 348.735 217.926,349.515 218.023,350.933 217.876 C 351.300 217.838,351.974 217.892,352.432 217.996 C 353.011 218.128,353.372 218.070,353.620 217.804 C 353.901 217.503,354.140 217.483,354.744 217.711 C 355.396 217.957,355.566 217.923,355.888 217.482 C 356.217 217.032,356.267 217.023,356.267 217.416 C 356.267 218.056,357.597 218.040,357.608 217.400 C 357.616 216.965,357.640 216.964,357.958 217.382 C 358.487 218.078,359.635 218.259,360.388 217.766 C 360.787 217.504,361.102 217.441,361.202 217.603 C 361.664 218.350,362.400 217.857,362.400 216.800 C 362.400 216.213,362.520 215.733,362.667 215.733 C 362.813 215.733,362.933 216.198,362.933 216.766 L 362.933 217.798 365.200 217.806 C 366.447 217.810,367.467 217.715,367.467 217.594 C 367.467 217.473,367.828 217.555,368.270 217.775 C 369.383 218.330,370.503 217.951,370.618 216.979 C 370.690 216.370,370.603 216.267,370.018 216.267 C 369.641 216.267,369.333 216.394,369.333 216.549 C 369.333 216.704,369.213 216.757,369.067 216.667 C 368.433 216.275,368.819 215.733,369.733 215.733 C 370.680 215.733,370.855 215.467,370.505 214.555 C 370.322 214.078,368.410 213.952,368.133 214.400 C 367.788 214.959,367.487 214.633,367.640 213.867 C 367.790 213.114,367.750 213.067,366.967 213.067 C 366.185 213.067,366.133 213.127,366.133 214.041 C 366.133 214.969,366.110 214.995,365.646 214.575 C 364.913 213.912,361.070 213.933,361.059 214.600 C 361.051 215.044,361.038 215.044,360.779 214.600 C 360.433 214.006,358.753 213.972,358.119 214.546 C 357.708 214.918,357.623 214.918,357.251 214.546 C 356.754 214.050,354.917 213.998,354.420 214.467 C 354.137 214.733,354.042 214.733,353.944 214.467 C 353.877 214.282,353.381 214.133,352.831 214.133 C 352.286 214.133,351.681 214.283,351.487 214.467 C 351.204 214.733,351.109 214.733,351.011 214.467 C 350.810 213.918,349.057 214.063,348.529 214.672 C 348.147 215.112,348.034 215.139,347.911 214.821 C 347.815 214.568,347.521 214.474,347.081 214.554 C 346.678 214.627,346.400 214.553,346.400 214.374 C 346.400 214.205,346.630 214.131,346.921 214.207 C 347.699 214.411,348.370 213.812,348.148 213.113 C 347.930 212.427,345.813 212.287,345.000 212.905 M338.667 215.845 C 338.667 216.251,338.304 216.772,338.105 216.649 C 337.715 216.408,337.834 215.733,338.267 215.733 C 338.487 215.733,338.667 215.784,338.667 215.845 M350.667 215.936 C 350.667 216.487,349.653 216.766,349.519 216.252 C 349.412 215.844,349.521 215.733,350.025 215.733 C 350.378 215.733,350.667 215.824,350.667 215.936 M353.067 216.118 C 353.067 216.329,352.947 216.576,352.800 216.667 C 352.653 216.757,352.533 216.774,352.533 216.704 C 352.533 216.634,352.460 216.387,352.371 216.155 C 352.265 215.878,352.357 215.733,352.638 215.733 C 352.874 215.733,353.067 215.906,353.067 216.118 M359.733 216.267 C 359.733 216.560,359.626 216.800,359.495 216.800 C 359.195 216.800,358.916 216.106,359.129 215.893 C 359.450 215.572,359.733 215.747,359.733 216.267 M347.400 216.450 C 347.143 216.518,346.723 216.518,346.467 216.450 C 346.210 216.383,346.420 216.329,346.933 216.329 C 347.447 216.329,347.657 216.383,347.400 216.450 M281.828 217.307 C 277.883 219.279,276.812 224.061,280.175 224.692 C 281.621 224.963,285.067 222.857,285.067 221.702 C 285.067 221.499,285.187 221.333,285.333 221.333 C 285.480 221.333,285.600 221.100,285.600 220.816 C 285.600 220.531,285.720 220.224,285.867 220.133 C 286.013 220.043,286.133 219.616,286.133 219.184 C 286.133 218.753,286.013 218.400,285.867 218.400 C 285.720 218.400,285.600 218.234,285.600 218.031 C 285.600 216.923,283.429 216.507,281.828 217.307 M313.867 218.661 C 313.196 219.085,313.304 223.121,314.000 223.642 C 314.709 224.172,316.405 223.947,317.178 223.220 L 317.771 222.664 318.399 223.332 C 319.253 224.241,321.333 224.023,321.333 223.024 C 321.333 222.461,321.789 222.607,321.949 223.221 C 322.153 223.998,323.301 223.825,323.419 223.000 C 323.508 222.373,323.994 222.154,324.008 222.733 C 324.024 223.353,325.319 224.068,326.086 223.881 C 326.479 223.785,327.181 223.716,327.647 223.727 C 328.112 223.738,328.565 223.631,328.653 223.489 C 328.748 223.336,329.132 223.414,329.606 223.682 C 330.352 224.106,330.448 224.106,331.200 223.679 L 332.000 223.225 332.000 224.012 C 332.000 224.710,332.092 224.800,332.800 224.800 C 333.306 224.800,333.600 224.663,333.600 224.429 C 333.600 224.225,333.929 223.975,334.331 223.874 C 334.733 223.774,335.162 223.551,335.284 223.379 C 335.453 223.143,335.540 223.148,335.643 223.400 C 335.814 223.823,336.596 223.831,337.013 223.413 C 337.262 223.164,337.333 223.164,337.333 223.413 C 337.333 223.889,338.584 223.801,338.771 223.312 C 338.860 223.080,338.950 222.570,338.971 222.178 C 338.998 221.679,339.057 221.784,339.171 222.531 C 339.337 223.622,340.110 224.151,340.535 223.465 C 340.683 223.224,340.911 223.261,341.444 223.610 C 342.017 223.985,342.282 224.018,342.809 223.778 C 343.169 223.614,343.816 223.550,344.248 223.636 C 344.987 223.784,345.041 223.735,345.204 222.763 C 345.468 221.192,345.556 221.093,345.579 222.342 C 345.602 223.598,346.115 224.040,346.946 223.521 C 347.311 223.292,347.496 223.313,347.743 223.612 C 348.214 224.179,349.002 224.086,349.358 223.421 C 349.610 222.950,349.587 222.783,349.234 222.525 C 348.681 222.121,348.683 221.638,349.240 221.022 C 349.653 220.566,349.636 220.494,348.960 219.868 C 348.129 219.098,347.278 218.996,347.152 219.652 C 347.081 220.023,346.797 220.091,345.559 220.034 C 344.624 219.990,343.981 220.082,343.860 220.277 C 343.713 220.515,343.619 220.513,343.468 220.268 C 343.156 219.764,341.289 219.869,340.890 220.414 C 340.576 220.843,340.534 220.845,340.379 220.441 C 340.163 219.878,335.880 219.781,335.622 220.333 C 335.498 220.600,335.436 220.600,335.311 220.333 C 335.101 219.884,332.000 219.872,332.000 220.320 C 332.000 220.569,331.929 220.569,331.680 220.320 C 331.294 219.934,329.333 219.890,329.333 220.267 C 329.333 221.032,328.820 220.388,328.749 219.533 C 328.614 217.895,327.200 217.867,327.200 219.502 C 327.200 220.387,327.129 220.569,326.880 220.320 C 326.249 219.689,323.025 219.910,322.797 220.600 L 322.599 221.200 322.484 220.624 C 322.351 219.958,319.832 219.630,318.816 220.146 C 318.351 220.383,318.195 220.311,317.804 219.680 C 317.549 219.269,317.159 218.933,316.937 218.933 C 316.715 218.933,316.533 218.813,316.533 218.667 C 316.533 218.328,314.400 218.324,313.867 218.661 M351.768 219.151 C 351.474 219.565,351.076 220.405,350.885 221.018 C 350.693 221.631,350.446 222.133,350.335 222.133 C 350.003 222.133,350.107 223.062,350.498 223.597 C 350.848 224.075,350.891 224.067,351.577 223.381 C 352.533 222.425,354.400 222.968,354.400 224.202 C 354.400 224.586,355.068 224.800,356.267 224.800 C 357.788 224.800,358.132 224.587,358.142 223.638 C 358.149 222.900,358.191 222.854,358.492 223.249 C 358.910 223.800,360.112 224.131,360.585 223.825 C 360.777 223.701,361.353 223.600,361.867 223.600 C 362.775 223.600,362.802 223.569,362.882 222.461 C 362.979 221.123,363.467 221.204,363.467 222.557 C 363.467 223.528,364.136 224.109,364.527 223.477 C 364.686 223.219,364.891 223.247,365.434 223.603 C 365.819 223.855,366.374 223.999,366.667 223.923 C 367.066 223.818,367.200 223.915,367.200 224.308 C 367.200 224.747,367.355 224.819,368.152 224.749 C 369.116 224.666,369.403 224.354,370.066 222.667 C 370.211 222.300,370.479 221.681,370.662 221.292 C 371.068 220.432,370.847 220.000,370.002 220.000 C 369.581 220.000,369.306 220.200,369.180 220.596 L 368.991 221.191 368.771 220.596 C 368.454 219.740,365.522 219.640,364.920 220.464 C 364.651 220.831,364.601 220.829,364.451 220.437 C 364.251 219.915,361.333 219.786,361.333 220.299 C 361.333 220.503,361.203 220.490,360.924 220.259 C 360.337 219.771,358.948 219.881,358.517 220.450 C 358.174 220.902,358.150 220.903,358.142 220.467 C 358.136 220.129,357.894 219.988,357.267 219.958 C 355.820 219.887,355.377 219.991,354.796 220.537 L 354.238 221.061 353.903 220.133 C 353.253 218.336,352.572 218.023,351.768 219.151 M294.729 218.920 C 293.666 219.099,291.467 220.921,291.467 221.623 C 291.467 221.904,291.347 222.133,291.200 222.133 C 290.811 222.133,290.890 223.787,291.305 224.333 C 292.710 226.184,297.333 223.577,297.333 220.933 C 297.333 219.328,296.434 218.633,294.729 218.920 M316.108 220.348 C 316.780 220.840,316.579 221.975,315.800 222.085 C 315.262 222.162,315.200 222.058,315.200 221.085 C 315.200 219.925,315.356 219.798,316.108 220.348 M330.872 221.817 C 330.931 221.994,330.733 222.133,330.422 222.133 C 329.868 222.133,329.702 221.853,330.050 221.506 C 330.297 221.258,330.742 221.427,330.872 221.817 M356.561 221.946 C 356.219 222.288,355.872 222.023,356.125 221.613 C 356.223 221.455,356.426 221.400,356.575 221.492 C 356.757 221.605,356.753 221.754,356.561 221.946 M334.533 221.867 C 334.443 222.013,334.196 222.133,333.984 222.133 C 333.773 222.133,333.600 222.013,333.600 221.867 C 333.600 221.720,333.847 221.600,334.149 221.600 C 334.451 221.600,334.624 221.720,334.533 221.867 M367.544 221.950 C 367.641 222.203,367.464 222.268,366.906 222.186 C 366.481 222.124,366.133 221.966,366.133 221.836 C 366.133 221.461,367.395 221.562,367.544 221.950 M127.133 233.533 C 130.397 233.575,135.737 233.575,139.000 233.533 C 142.263 233.491,139.593 233.456,133.067 233.456 C 126.540 233.456,123.870 233.491,127.133 233.533 M123.331 257.933 L 123.333 279.067 144.200 279.069 L 165.067 279.072 144.268 279.001 L 123.470 278.930 123.399 257.865 L 123.328 236.800 123.331 257.933 M168.656 269.200 C 168.656 275.800,168.691 278.462,168.733 275.115 C 168.775 271.768,168.775 266.368,168.733 263.115 C 168.691 259.862,168.656 262.600,168.656 269.200 M351.853 272.400 C 351.853 277.387,351.889 279.389,351.933 276.850 C 351.977 274.310,351.977 270.230,351.933 267.783 C 351.889 265.336,351.853 267.413,351.853 272.400 M221.986 272.400 C 221.986 277.240,222.022 279.258,222.066 276.884 C 222.110 274.510,222.110 270.550,222.066 268.084 C 222.022 265.618,221.986 267.560,221.986 272.400 M249.453 272.400 C 249.453 277.240,249.489 279.258,249.533 276.884 C 249.577 274.510,249.577 270.550,249.533 268.084 C 249.489 265.618,249.453 267.560,249.453 272.400 M332.386 272.533 C 332.386 277.447,332.422 279.457,332.466 277.000 C 332.510 274.543,332.510 270.523,332.466 268.067 C 332.422 265.610,332.386 267.620,332.386 272.533 M216.919 272.133 C 216.918 276.680,216.955 278.577,216.999 276.350 C 217.044 274.122,217.044 270.402,217.000 268.083 C 216.955 265.764,216.919 267.587,216.919 272.133 M271.319 272.400 C 271.319 277.093,271.355 278.976,271.400 276.583 C 271.444 274.191,271.444 270.351,271.399 268.050 C 271.355 265.749,271.319 267.707,271.319 272.400 M291.852 272.400 C 291.852 277.093,291.889 278.976,291.933 276.583 C 291.977 274.191,291.977 270.351,291.933 268.050 C 291.888 265.749,291.852 267.707,291.852 272.400 M264.533 265.467 C 265.031 265.980,265.498 266.400,265.571 266.400 C 265.645 266.400,265.298 265.980,264.800 265.467 C 264.302 264.953,263.835 264.533,263.762 264.533 C 263.689 264.533,264.036 264.953,264.533 265.467 M183.533 265.796 C 184.230 265.851,185.370 265.851,186.067 265.796 C 186.763 265.741,186.193 265.696,184.800 265.696 C 183.407 265.696,182.837 265.741,183.533 265.796 M192.067 265.796 C 192.763 265.851,193.903 265.851,194.600 265.796 C 195.297 265.741,194.727 265.696,193.333 265.696 C 191.940 265.696,191.370 265.741,192.067 265.796 M225.428 268.133 C 225.427 269.453,225.472 270.027,225.528 269.408 C 225.584 268.789,225.585 267.709,225.530 267.008 C 225.475 266.307,225.429 266.813,225.428 268.133 M187.318 273.733 C 187.318 277.987,187.355 279.689,187.400 277.517 C 187.444 275.345,187.444 271.865,187.399 269.784 C 187.354 267.703,187.318 269.480,187.318 273.733 M190.784 273.733 C 190.784 277.987,190.821 279.689,190.866 277.517 C 190.911 275.345,190.911 271.865,190.866 269.784 C 190.821 267.703,190.784 269.480,190.784 273.733 M287.543 268.667 C 287.545 269.400,287.597 269.668,287.658 269.263 C 287.719 268.858,287.718 268.258,287.654 267.930 C 287.591 267.602,287.541 267.933,287.543 268.667 M335.853 269.674 C 335.781 269.861,335.757 272.531,335.800 275.607 L 335.878 281.200 335.939 275.384 C 335.984 271.069,336.079 269.618,336.308 269.759 C 336.499 269.877,336.543 269.832,336.425 269.641 C 336.179 269.243,336.015 269.252,335.853 269.674 M347.856 269.618 C 347.724 269.831,347.760 269.881,347.959 269.759 C 348.187 269.618,348.282 271.069,348.328 275.384 L 348.389 281.200 348.467 275.485 C 348.539 270.189,348.389 268.755,347.856 269.618 M206.480 274.065 C 207.770 274.114,209.810 274.114,211.013 274.065 C 212.216 274.016,211.160 273.975,208.667 273.976 C 206.173 273.976,205.189 274.016,206.480 274.065 M225.427 276.533 C 225.427 277.780,225.472 278.290,225.529 277.667 C 225.585 277.043,225.585 276.023,225.529 275.400 C 225.472 274.777,225.427 275.287,225.427 276.533 M264.383 279.533 L 263.600 280.400 264.467 279.617 C 264.943 279.186,265.333 278.796,265.333 278.750 C 265.333 278.544,265.113 278.725,264.383 279.533 " stroke="none" fill="#96151c" fill-rule="evenodd"></path><path id="path1" d="M388.400 0.567 C 387.080 0.858,385.220 1.197,384.267 1.319 C 382.287 1.574,379.960 1.957,376.133 2.658 C 374.667 2.926,372.207 3.346,370.667 3.590 C 369.127 3.835,366.547 4.267,364.933 4.551 C 363.320 4.834,360.589 5.260,358.864 5.496 C 357.140 5.732,355.663 6.032,355.582 6.163 C 355.501 6.293,354.932 6.399,354.318 6.398 C 353.263 6.395,352.047 6.592,343.600 8.130 C 341.693 8.477,339.473 8.834,338.667 8.923 C 337.860 9.013,335.640 9.376,333.733 9.731 C 331.827 10.085,329.007 10.563,327.467 10.792 C 323.084 11.446,315.532 12.702,310.667 13.588 C 309.127 13.868,307.027 14.177,306.000 14.275 C 304.973 14.373,304.013 14.544,303.867 14.655 C 303.497 14.937,302.127 15.192,299.467 15.475 C 298.220 15.608,296.240 15.910,295.067 16.146 C 293.893 16.382,292.213 16.673,291.333 16.793 C 290.453 16.913,287.993 17.324,285.867 17.707 C 283.740 18.090,280.740 18.589,279.200 18.816 C 277.660 19.042,275.380 19.417,274.133 19.648 C 272.887 19.879,271.147 20.182,270.267 20.321 C 269.387 20.460,267.167 20.818,265.333 21.116 C 263.500 21.415,261.040 21.815,259.867 22.006 C 258.693 22.196,255.993 22.665,253.867 23.047 C 251.740 23.429,248.800 23.922,247.333 24.142 C 245.867 24.362,243.347 24.775,241.733 25.059 C 240.120 25.343,237.480 25.770,235.867 26.008 C 234.253 26.246,231.733 26.663,230.267 26.936 C 228.800 27.208,226.340 27.626,224.800 27.864 C 223.260 28.103,220.380 28.588,218.400 28.942 C 216.420 29.296,213.723 29.716,212.406 29.876 C 211.089 30.036,209.940 30.281,209.853 30.422 C 209.766 30.563,208.864 30.741,207.847 30.818 C 205.959 30.962,204.294 31.219,197.733 32.381 C 192.402 33.325,184.803 34.568,182.000 34.955 C 180.680 35.137,179.305 35.394,178.945 35.524 C 178.584 35.655,177.324 35.878,176.145 36.020 C 173.942 36.286,170.094 36.932,164.933 37.903 C 163.320 38.207,161.160 38.552,160.133 38.670 C 159.107 38.788,157.787 39.013,157.200 39.171 C 156.613 39.328,155.053 39.588,153.733 39.748 C 152.413 39.908,150.373 40.218,149.200 40.438 C 146.823 40.883,146.754 40.895,142.267 41.622 C 140.507 41.907,137.387 42.441,135.333 42.809 C 133.280 43.177,130.612 43.597,129.404 43.741 C 128.195 43.886,126.515 44.186,125.670 44.408 C 124.825 44.630,123.049 44.926,121.724 45.065 C 120.399 45.204,118.479 45.507,117.457 45.738 C 116.436 45.969,114.760 46.266,113.733 46.399 C 112.707 46.532,109.827 47.008,107.333 47.456 C 104.840 47.905,101.480 48.453,99.867 48.674 C 98.253 48.895,95.793 49.305,94.400 49.586 C 93.007 49.866,90.337 50.304,88.467 50.558 C 86.597 50.813,85.067 51.104,85.067 51.205 C 85.067 51.307,84.257 51.457,83.267 51.541 C 81.552 51.685,78.456 52.191,72.267 53.338 C 70.727 53.623,68.335 53.983,66.951 54.137 C 65.567 54.290,64.293 54.534,64.119 54.678 C 63.946 54.823,62.678 55.050,61.302 55.184 C 59.926 55.318,56.700 55.802,54.133 56.260 C 44.753 57.935,38.481 58.977,36.267 59.230 C 35.020 59.372,33.431 59.673,32.736 59.898 C 32.041 60.123,30.421 60.408,29.136 60.530 C 27.851 60.652,25.420 61.006,23.733 61.317 C 22.047 61.627,19.227 62.128,17.467 62.429 C 15.707 62.731,13.007 63.205,11.467 63.484 C 9.927 63.763,8.007 64.059,7.200 64.142 C -0.177 64.900,-0.377 65.038,0.389 68.859 C 0.603 69.927,1.034 72.240,1.346 74.000 C 2.142 78.485,2.864 82.492,3.604 86.533 C 3.953 88.440,4.482 91.380,4.780 93.067 C 6.350 101.962,6.732 104.093,7.191 106.533 C 7.719 109.335,8.338 112.775,9.469 119.200 C 9.843 121.327,10.383 124.327,10.669 125.867 C 10.955 127.407,11.423 129.987,11.709 131.600 C 12.581 136.511,13.592 142.116,14.138 145.067 C 14.422 146.607,14.963 149.607,15.338 151.733 C 15.713 153.860,16.252 156.860,16.535 158.400 C 16.819 159.940,17.361 162.940,17.741 165.067 C 18.120 167.193,18.652 170.133,18.924 171.600 C 19.195 173.067,19.680 175.767,20.001 177.600 C 20.322 179.433,20.805 182.133,21.075 183.600 C 21.592 186.404,22.584 191.914,23.500 197.067 C 23.800 198.753,24.333 201.693,24.686 203.600 C 25.431 207.637,26.151 211.642,26.939 216.133 C 27.493 219.298,28.324 223.901,29.321 229.333 C 29.604 230.873,30.088 233.573,30.398 235.333 C 30.707 237.093,31.134 239.445,31.347 240.560 C 31.559 241.675,31.733 242.665,31.733 242.760 C 31.733 243.165,36.265 242.907,38.243 242.389 C 39.385 242.090,41.118 241.736,42.093 241.602 C 45.388 241.151,47.599 240.745,47.867 240.542 C 48.013 240.430,48.853 240.263,49.733 240.169 C 50.613 240.075,52.593 239.753,54.133 239.454 C 61.272 238.068,62.409 237.863,64.533 237.584 C 65.780 237.420,66.940 237.170,67.111 237.029 C 67.282 236.887,68.422 236.666,69.644 236.536 C 70.867 236.407,74.027 235.879,76.667 235.363 C 84.806 233.771,91.265 232.591,92.800 232.415 C 93.607 232.323,94.807 232.082,95.467 231.880 C 96.127 231.678,97.327 231.438,98.133 231.347 C 99.802 231.159,104.263 230.349,108.000 229.555 C 109.393 229.259,111.193 228.924,112.000 228.812 C 112.807 228.699,114.727 228.359,116.267 228.057 C 117.807 227.754,120.147 227.359,121.467 227.178 C 122.787 226.998,124.000 226.748,124.163 226.623 C 124.326 226.498,125.346 226.282,126.430 226.142 C 128.357 225.893,129.637 225.669,135.600 224.535 C 137.213 224.228,139.266 223.865,140.162 223.729 C 141.058 223.592,142.798 223.251,144.029 222.972 C 145.259 222.692,147.046 222.388,147.998 222.296 C 148.950 222.203,150.750 221.899,151.998 221.620 C 153.246 221.341,155.407 220.911,156.800 220.666 C 158.193 220.420,160.773 219.938,162.533 219.595 C 164.293 219.252,166.633 218.831,167.733 218.660 C 168.833 218.489,170.813 218.126,172.133 217.854 C 173.453 217.583,175.853 217.160,177.467 216.915 C 179.080 216.670,180.520 216.380,180.667 216.271 C 180.813 216.162,181.653 215.996,182.533 215.902 C 184.075 215.737,186.066 215.375,192.933 214.006 C 194.693 213.656,196.901 213.301,197.839 213.218 C 198.778 213.135,199.695 212.942,199.878 212.790 C 200.061 212.638,201.454 212.349,202.972 212.148 C 207.089 211.601,209.436 211.168,209.720 210.903 C 209.859 210.773,210.376 210.667,210.869 210.667 C 211.361 210.667,212.267 210.553,212.882 210.414 C 213.497 210.275,215.440 209.910,217.200 209.604 C 218.960 209.297,220.950 208.924,221.623 208.774 C 222.295 208.624,223.915 208.333,225.223 208.128 C 226.530 207.923,228.500 207.573,229.600 207.351 C 230.700 207.128,232.851 206.739,234.380 206.486 L 237.160 206.027 240.646 202.430 C 245.380 197.547,245.588 197.332,248.933 193.835 C 252.004 190.625,261.955 180.234,263.333 178.798 C 263.773 178.339,266.113 175.891,268.533 173.357 C 270.953 170.822,273.653 168.000,274.533 167.086 C 275.413 166.171,278.413 163.043,281.200 160.135 C 283.987 157.227,286.927 154.168,287.733 153.337 C 288.540 152.505,291.018 149.915,293.241 147.579 C 295.463 145.244,297.863 142.729,298.574 141.991 C 306.725 133.530,311.122 128.950,312.264 127.733 C 314.234 125.636,318.007 121.688,321.440 118.133 C 323.069 116.447,326.621 112.734,329.334 109.883 C 332.047 107.032,334.927 104.022,335.733 103.195 C 336.540 102.368,338.340 100.495,339.733 99.034 C 342.708 95.915,352.343 85.859,354.267 83.867 C 355.000 83.108,356.740 81.290,358.133 79.827 C 360.412 77.436,370.935 66.461,372.933 64.393 C 373.373 63.937,375.653 61.546,378.000 59.080 C 380.347 56.613,382.927 53.910,383.733 53.074 C 384.540 52.237,387.540 49.106,390.400 46.116 C 393.260 43.125,396.588 39.656,397.795 38.406 C 400.506 35.600,400.420 36.679,398.672 27.333 C 398.121 24.391,397.431 20.541,396.400 14.667 C 396.027 12.540,395.495 9.600,395.217 8.133 C 394.939 6.667,394.503 4.237,394.248 2.733 L 393.785 0.000 392.293 0.019 C 391.472 0.029,389.720 0.276,388.400 0.567 M49.782 78.559 C 54.162 79.761,56.005 83.180,56.201 90.467 L 56.320 94.933 52.694 94.933 L 49.067 94.933 49.067 90.859 C 49.067 86.298,48.930 85.860,47.340 85.336 C 46.210 84.963,45.125 85.386,44.612 86.400 C 44.077 87.457,44.119 117.075,44.657 118.114 C 45.095 118.961,45.546 119.200,46.706 119.200 C 48.688 119.200,48.891 118.719,49.062 113.600 L 49.200 109.467 52.667 109.467 L 56.133 109.467 56.215 113.067 C 56.400 121.277,54.027 125.201,48.280 126.186 C 42.670 127.148,38.388 124.343,36.932 118.752 C 36.332 116.447,36.342 88.049,36.945 85.723 C 38.556 79.498,43.386 76.803,49.782 78.559 M71.200 78.431 C 73.871 79.021,76.058 81.140,77.361 84.400 L 78.000 86.000 78.079 101.274 C 78.129 111.041,78.058 117.087,77.881 118.045 C 75.866 128.943,61.163 129.396,58.683 118.637 C 58.213 116.599,58.315 87.370,58.799 85.515 C 60.326 79.650,64.900 77.038,71.200 78.431 M93.729 79.430 C 99.851 81.671,100.914 85.049,100.914 102.267 C 100.914 123.098,99.260 125.700,86.000 125.724 L 80.667 125.733 80.599 102.174 L 80.530 78.614 86.332 78.730 C 91.460 78.833,92.318 78.914,93.729 79.430 M119.941 82.333 L 119.867 86.000 115.267 86.073 L 110.667 86.146 110.667 91.998 L 110.667 97.850 113.933 97.925 L 117.200 98.000 117.274 101.933 L 117.348 105.867 114.007 105.867 L 110.667 105.867 110.667 112.133 L 110.667 118.400 115.333 118.400 L 120.000 118.400 120.000 122.137 L 120.000 125.874 111.533 125.804 L 103.067 125.733 102.999 102.200 L 102.930 78.667 111.473 78.667 L 120.015 78.667 119.941 82.333 M67.286 85.378 C 66.026 85.999,66.000 86.347,66.000 102.447 C 66.000 117.384,66.007 117.570,66.560 118.314 C 67.312 119.325,68.978 119.501,69.747 118.651 C 70.571 117.741,70.558 86.701,69.733 85.891 C 69.055 85.224,68.031 85.010,67.286 85.378 M88.267 102.290 L 88.267 118.714 89.400 118.526 C 92.609 117.994,92.987 116.731,93.230 105.733 C 93.582 89.793,92.773 85.869,89.133 85.867 L 88.267 85.867 88.267 102.290 M195.562 132.399 C 199.028 133.450,201.130 135.963,201.978 140.069 C 202.567 142.917,202.598 169.557,202.016 172.302 C 200.883 177.644,197.828 180.133,192.400 180.133 C 187.280 180.133,184.351 177.883,183.029 172.933 C 182.477 170.867,182.509 141.517,183.065 139.381 C 184.560 133.644,189.876 130.674,195.562 132.399 M55.733 136.267 L 55.733 140.000 52.267 140.000 L 48.800 140.000 48.800 159.867 L 48.800 179.733 45.067 179.733 L 41.333 179.733 41.333 159.875 L 41.333 140.016 37.933 139.941 L 34.533 139.867 34.458 136.548 C 34.417 134.723,34.443 133.073,34.516 132.881 C 34.623 132.603,36.765 132.533,45.192 132.533 L 55.733 132.533 55.733 136.267 M74.533 136.267 L 74.533 139.867 69.933 139.940 L 65.333 140.013 65.333 146.006 L 65.333 152.000 68.667 152.000 L 72.000 152.000 72.000 155.867 L 72.000 159.733 68.667 159.733 L 65.333 159.733 65.333 166.000 L 65.333 172.267 69.862 172.267 C 75.199 172.267,74.729 171.844,74.611 176.533 L 74.533 179.600 66.067 179.670 L 57.600 179.741 57.600 156.133 L 57.600 132.526 66.067 132.596 L 74.533 132.667 74.533 136.267 M83.574 133.000 C 84.005 134.406,90.271 156.118,90.635 157.467 C 91.051 159.007,91.069 158.575,91.136 145.800 L 91.205 132.533 94.669 132.533 L 98.133 132.533 98.133 156.141 L 98.133 179.749 94.764 179.675 L 91.395 179.600 90.523 176.533 C 90.043 174.847,88.485 169.447,87.060 164.533 C 85.634 159.620,84.314 155.060,84.125 154.400 C 83.832 153.378,83.777 155.172,83.757 166.467 L 83.733 179.733 80.267 179.733 L 76.800 179.733 76.800 156.133 L 76.800 132.533 80.115 132.533 C 83.041 132.533,83.448 132.588,83.574 133.000 M111.816 132.831 C 120.065 134.109,121.456 137.452,121.460 156.000 C 121.464 177.137,120.078 179.386,106.867 179.672 L 101.067 179.798 101.067 156.166 L 101.067 132.533 105.482 132.533 C 107.911 132.533,110.761 132.667,111.816 132.831 M140.533 136.267 L 140.533 140.000 135.867 140.000 L 131.200 140.000 131.200 146.000 L 131.200 152.000 134.533 152.000 L 137.867 152.000 137.867 155.867 L 137.867 159.733 134.533 159.733 L 131.200 159.733 131.200 165.994 L 131.200 172.254 135.800 172.327 L 140.400 172.400 140.474 176.067 L 140.548 179.733 132.141 179.733 L 123.733 179.733 123.733 156.133 L 123.733 132.533 132.133 132.533 L 140.533 132.533 140.533 136.267 M153.387 132.831 C 159.320 134.078,162.133 138.362,162.133 146.146 C 162.133 150.789,161.317 153.701,159.408 155.870 L 158.300 157.129 159.295 162.098 C 159.843 164.831,160.862 169.860,161.560 173.274 C 162.258 176.688,162.773 179.538,162.704 179.607 C 162.634 179.677,160.940 179.733,158.939 179.733 L 155.301 179.733 154.563 175.933 C 154.158 173.843,153.315 169.433,152.691 166.133 L 151.556 160.133 150.711 160.050 L 149.867 159.966 149.867 169.850 L 149.867 179.733 146.133 179.733 L 142.400 179.733 142.400 156.133 L 142.400 132.533 147.187 132.533 C 149.820 132.533,152.610 132.667,153.387 132.831 M172.267 152.800 L 172.267 173.067 177.067 173.067 L 181.867 173.067 181.867 176.400 L 181.867 179.733 173.333 179.733 L 164.800 179.733 164.800 156.133 L 164.800 132.533 168.533 132.533 L 172.267 132.533 172.267 152.800 M212.267 156.141 L 212.267 179.748 208.467 179.674 L 204.667 179.600 204.598 156.400 C 204.560 143.640,204.586 133.050,204.656 132.867 C 204.749 132.622,205.777 132.533,208.525 132.533 L 212.267 132.533 212.267 156.141 M222.119 134.333 C 222.879 136.896,225.281 145.209,227.392 152.579 L 229.200 158.891 229.269 145.712 L 229.338 132.533 232.802 132.533 L 236.267 132.533 236.267 156.133 L 236.267 179.733 232.945 179.733 L 229.623 179.733 229.095 177.933 C 227.563 172.713,224.611 162.472,223.390 158.143 L 222.000 153.218 221.931 166.476 L 221.862 179.733 218.398 179.733 L 214.933 179.733 214.933 156.133 L 214.933 132.533 218.259 132.533 L 221.585 132.533 222.119 134.333 M190.960 139.894 C 190.118 140.963,190.102 141.316,190.187 156.933 C 190.274 172.882,190.231 172.444,191.773 173.083 C 192.680 173.459,193.831 172.970,194.322 172.000 C 194.856 170.943,194.814 141.325,194.277 140.286 C 193.595 138.969,191.850 138.762,190.960 139.894 M108.800 156.097 L 108.800 172.533 109.609 172.533 C 113.212 172.533,113.858 170.041,113.858 156.133 C 113.858 142.460,113.344 140.284,110.002 139.826 L 108.800 139.661 108.800 156.097 M149.867 146.510 L 149.867 153.358 150.867 153.180 C 156.352 152.204,156.448 140.546,150.977 139.812 L 149.867 139.663 149.867 146.510 M347.867 219.115 C 348.160 219.196,348.499 219.398,348.620 219.564 C 348.766 219.764,348.804 219.731,348.733 219.467 C 348.673 219.247,348.334 219.045,347.979 219.017 C 347.470 218.979,347.446 218.999,347.867 219.115 " stroke="none" fill="#040404" fill-rule="evenodd"></path><path id="path2" d="M80.664 102.133 L 80.667 125.733 85.267 125.743 L 89.867 125.753 85.335 125.670 L 80.803 125.587 80.733 102.060 L 80.662 78.533 80.664 102.133 M89.267 78.855 C 89.597 78.918,90.137 78.918,90.467 78.855 C 90.797 78.791,90.527 78.739,89.867 78.739 C 89.207 78.739,88.937 78.791,89.267 78.855 M103.064 102.133 L 103.067 125.733 111.533 125.804 L 120.000 125.874 120.000 122.137 L 120.000 118.400 115.333 118.400 L 110.667 118.400 110.667 112.141 L 110.667 105.883 114.000 105.796 L 117.334 105.708 113.934 105.721 L 110.533 105.733 110.533 112.133 L 110.533 118.533 115.133 118.606 L 119.733 118.679 119.733 122.140 L 119.733 125.600 111.468 125.600 L 103.203 125.600 103.133 102.067 L 103.062 78.533 103.064 102.133 M119.791 82.200 L 119.733 85.867 115.067 85.867 L 110.400 85.867 110.400 91.985 L 110.400 98.104 113.842 98.185 C 115.735 98.230,117.228 98.177,117.159 98.067 C 117.091 97.957,115.602 97.867,113.851 97.867 L 110.667 97.867 110.667 92.000 L 110.667 86.133 115.208 86.133 C 120.538 86.133,120.044 86.567,119.933 81.986 L 119.849 78.533 119.791 82.200 M53.067 80.667 C 53.564 81.180,54.031 81.600,54.105 81.600 C 54.178 81.600,53.831 81.180,53.333 80.667 C 52.836 80.153,52.369 79.733,52.295 79.733 C 52.222 79.733,52.569 80.153,53.067 80.667 M61.319 80.733 L 60.400 81.733 61.400 80.814 C 62.331 79.959,62.523 79.733,62.319 79.733 C 62.274 79.733,61.824 80.183,61.319 80.733 M47.452 85.361 C 47.811 85.504,48.237 85.707,48.398 85.811 C 48.560 85.915,48.463 85.790,48.183 85.533 C 47.903 85.277,47.478 85.074,47.237 85.084 C 46.961 85.094,47.040 85.196,47.452 85.361 M88.065 102.200 L 88.129 118.800 88.200 102.352 L 88.271 85.903 88.869 85.788 C 89.379 85.690,89.359 85.667,88.733 85.636 L 88.000 85.600 88.065 102.200 M36.658 102.267 C 36.658 110.773,36.692 114.292,36.733 110.086 C 36.774 105.880,36.774 98.920,36.733 94.619 C 36.692 90.319,36.658 93.760,36.658 102.267 M49.173 91.067 C 49.174 93.267,49.215 94.131,49.265 92.988 C 49.315 91.844,49.315 90.044,49.264 88.988 C 49.214 87.931,49.173 88.867,49.173 91.067 M70.525 102.133 C 70.525 110.420,70.559 113.810,70.600 109.667 C 70.641 105.523,70.641 98.743,70.600 94.600 C 70.559 90.457,70.525 93.847,70.525 102.133 M77.991 102.267 C 77.991 110.627,78.025 114.008,78.067 109.781 C 78.108 105.554,78.108 98.714,78.066 94.581 C 78.025 90.448,77.991 93.907,77.991 102.267 M44.125 102.267 C 44.125 110.480,44.158 113.879,44.200 109.819 C 44.241 105.759,44.241 99.039,44.200 94.886 C 44.159 90.732,44.125 94.053,44.125 102.267 M93.152 94.133 C 93.152 95.087,93.200 95.477,93.260 95.000 C 93.319 94.523,93.319 93.743,93.260 93.267 C 93.200 92.790,93.152 93.180,93.152 94.133 M100.918 102.267 C 100.918 106.667,100.955 108.504,100.999 106.350 C 101.044 104.196,101.044 100.596,101.000 98.350 C 100.955 96.104,100.918 97.867,100.918 102.267 M93.152 110.133 C 93.152 111.087,93.200 111.477,93.260 111.000 C 93.319 110.523,93.319 109.743,93.260 109.267 C 93.200 108.790,93.152 109.180,93.152 110.133 M49.184 109.680 C 49.111 109.870,49.088 111.700,49.134 113.746 L 49.216 117.467 49.275 113.519 L 49.333 109.570 52.775 109.652 C 54.668 109.697,56.161 109.643,56.093 109.533 C 55.860 109.159,49.331 109.297,49.184 109.680 M91.385 117.742 C 90.974 118.104,90.743 118.400,90.872 118.400 C 91.001 118.400,91.389 118.100,91.733 117.733 C 92.530 116.885,92.354 116.889,91.385 117.742 M46.200 119.384 C 46.457 119.451,46.877 119.451,47.133 119.384 C 47.390 119.317,47.180 119.262,46.667 119.262 C 46.153 119.262,45.943 119.317,46.200 119.384 M67.800 119.384 C 68.057 119.451,68.477 119.451,68.733 119.384 C 68.990 119.317,68.780 119.262,68.267 119.262 C 67.753 119.262,67.543 119.317,67.800 119.384 M45.533 126.326 C 46.010 126.385,46.790 126.385,47.267 126.326 C 47.743 126.267,47.353 126.219,46.400 126.219 C 45.447 126.219,45.057 126.267,45.533 126.326 M67.400 126.326 C 67.877 126.385,68.657 126.385,69.133 126.326 C 69.610 126.267,69.220 126.219,68.267 126.219 C 67.313 126.219,66.923 126.267,67.400 126.326 M190.733 132.184 C 190.990 132.251,191.410 132.251,191.667 132.184 C 191.923 132.117,191.713 132.062,191.200 132.062 C 190.687 132.062,190.477 132.117,190.733 132.184 M193.270 132.189 C 193.601 132.252,194.081 132.250,194.336 132.183 C 194.591 132.116,194.320 132.064,193.733 132.067 C 193.147 132.070,192.938 132.125,193.270 132.189 M34.516 132.881 C 34.443 133.073,34.417 134.723,34.458 136.548 L 34.533 139.867 37.934 139.879 L 41.334 139.892 37.986 139.804 L 34.638 139.717 34.719 136.125 C 34.799 132.570,34.776 132.204,34.516 132.881 M57.663 156.200 C 57.697 169.217,57.757 176.087,57.796 171.467 C 57.979 149.502,57.981 132.533,57.800 132.533 C 57.690 132.533,57.628 143.183,57.663 156.200 M91.138 145.867 C 91.099 153.200,91.157 159.200,91.267 159.200 C 91.377 159.200,91.467 153.200,91.467 145.867 C 91.467 138.533,91.409 132.533,91.338 132.533 C 91.268 132.533,91.178 138.533,91.138 145.867 M101.129 156.200 C 101.164 169.217,101.224 176.087,101.262 171.467 C 101.446 149.502,101.448 132.533,101.267 132.533 C 101.157 132.533,101.095 143.183,101.129 156.200 M108.600 132.724 C 109.003 132.785,109.663 132.785,110.067 132.724 C 110.470 132.663,110.140 132.613,109.333 132.613 C 108.527 132.613,108.197 132.663,108.600 132.724 M150.867 132.722 C 151.197 132.785,151.737 132.785,152.067 132.722 C 152.397 132.658,152.127 132.606,151.467 132.606 C 150.807 132.606,150.537 132.658,150.867 132.722 M204.711 132.711 C 204.464 132.958,204.486 179.406,204.733 179.559 C 204.843 179.627,204.933 169.074,204.933 156.108 C 204.933 143.142,204.923 132.533,204.911 132.533 C 204.899 132.533,204.809 132.613,204.711 132.711 M212.128 156.133 C 212.128 169.187,212.160 174.488,212.200 167.913 C 212.240 161.339,212.240 150.659,212.200 144.180 C 212.160 137.701,212.128 143.080,212.128 156.133 M229.272 145.867 C 229.232 153.200,229.288 159.200,229.395 159.200 C 229.502 159.200,229.622 153.200,229.662 145.867 C 229.701 138.533,229.646 132.533,229.538 132.533 C 229.431 132.533,229.311 138.533,229.272 145.867 M74.458 136.200 L 74.400 139.733 69.733 139.733 L 65.067 139.733 65.128 145.933 L 65.189 152.133 65.266 146.067 L 65.343 140.000 69.880 140.000 C 75.197 140.000,74.712 140.412,74.600 135.985 L 74.515 132.667 74.458 136.200 M185.450 134.733 L 184.667 135.600 185.533 134.817 C 186.010 134.386,186.400 133.996,186.400 133.950 C 186.400 133.744,186.180 133.925,185.450 134.733 M192.542 139.179 C 193.061 139.281,193.661 139.456,193.876 139.568 C 194.091 139.681,194.034 139.584,193.749 139.353 C 193.464 139.122,192.864 138.947,192.416 138.964 C 191.604 138.995,191.605 138.996,192.542 139.179 M108.656 139.800 C 108.586 139.983,108.559 147.453,108.598 156.400 L 108.667 172.667 109.271 172.702 C 109.781 172.732,109.791 172.719,109.333 172.616 C 108.796 172.496,108.793 172.388,108.863 155.981 C 108.902 146.898,108.900 139.467,108.858 139.467 C 108.817 139.467,108.726 139.617,108.656 139.800 M149.720 139.805 C 149.649 139.991,149.625 143.141,149.667 146.805 L 149.743 153.467 149.805 146.620 C 149.861 140.353,149.906 139.762,150.333 139.650 C 150.771 139.536,150.770 139.527,150.325 139.498 C 150.064 139.481,149.792 139.619,149.720 139.805 M50.467 139.931 C 51.457 139.982,53.077 139.982,54.067 139.931 C 55.057 139.880,54.247 139.838,52.267 139.838 C 50.287 139.838,49.477 139.880,50.467 139.931 M133.387 139.932 C 134.662 139.980,136.822 139.981,138.187 139.932 C 139.551 139.884,138.507 139.844,135.867 139.844 C 133.227 139.843,132.111 139.883,133.387 139.932 M194.791 156.133 C 194.791 164.200,194.825 167.538,194.866 163.552 C 194.908 159.566,194.908 152.966,194.867 148.886 C 194.825 144.805,194.791 148.067,194.791 156.133 M202.258 156.267 C 202.258 164.407,202.292 167.737,202.333 163.667 C 202.375 159.597,202.375 152.937,202.333 148.867 C 202.292 144.797,202.258 148.127,202.258 156.267 M113.676 146.800 C 113.678 147.533,113.730 147.802,113.791 147.396 C 113.853 146.991,113.851 146.391,113.788 146.063 C 113.724 145.735,113.674 146.067,113.676 146.800 M121.413 148.800 C 121.413 149.607,121.463 149.937,121.524 149.533 C 121.585 149.130,121.585 148.470,121.524 148.067 C 121.463 147.663,121.413 147.993,121.413 148.800 M71.840 155.867 C 71.840 158.067,71.882 158.931,71.932 157.788 C 71.982 156.644,71.982 154.844,71.931 153.788 C 71.881 152.731,71.840 153.667,71.840 155.867 M83.527 166.467 C 83.560 173.837,83.620 177.767,83.659 175.200 C 83.845 163.254,83.848 153.066,83.667 153.067 C 83.557 153.067,83.494 159.097,83.527 166.467 M221.722 153.400 C 221.652 153.583,221.626 159.613,221.664 166.800 L 221.734 179.867 221.867 166.467 C 221.940 159.097,221.966 153.067,221.925 153.067 C 221.884 153.067,221.792 153.217,221.722 153.400 M158.961 156.105 C 158.401 156.682,158.130 157.190,158.211 157.505 C 158.330 157.967,158.340 157.965,158.369 157.479 C 158.386 157.193,158.784 156.563,159.252 156.079 C 159.721 155.596,160.045 155.200,159.971 155.200 C 159.898 155.200,159.443 155.607,158.961 156.105 M65.128 166.067 L 65.067 172.533 69.800 172.473 L 74.533 172.413 69.938 172.334 L 65.343 172.254 65.266 165.927 L 65.190 159.600 65.128 166.067 M149.721 169.867 C 149.721 175.367,149.756 177.617,149.800 174.867 C 149.843 172.117,149.843 167.617,149.800 164.867 C 149.756 162.117,149.721 164.367,149.721 169.867 M121.413 163.467 C 121.413 164.273,121.463 164.603,121.524 164.200 C 121.585 163.797,121.585 163.137,121.524 162.733 C 121.463 162.330,121.413 162.660,121.413 163.467 M113.676 165.467 C 113.678 166.200,113.730 166.468,113.791 166.063 C 113.853 165.658,113.851 165.058,113.788 164.730 C 113.724 164.402,113.674 164.733,113.676 165.467 M132.667 172.448 C 136.572 172.641,140.473 172.650,140.360 172.467 C 140.291 172.357,138.172 172.290,135.651 172.318 C 133.130 172.346,131.787 172.405,132.667 172.448 M74.504 176.133 C 74.504 178.040,74.547 178.785,74.598 177.789 C 74.649 176.793,74.649 175.233,74.597 174.322 C 74.545 173.412,74.503 174.227,74.504 176.133 M117.717 176.867 L 116.933 177.733 117.800 176.950 C 118.277 176.519,118.667 176.129,118.667 176.083 C 118.667 175.877,118.447 176.059,117.717 176.867 M185.600 177.733 C 186.098 178.247,186.565 178.667,186.638 178.667 C 186.711 178.667,186.364 178.247,185.867 177.733 C 185.369 177.220,184.902 176.800,184.829 176.800 C 184.755 176.800,185.102 177.220,185.600 177.733 M109.536 179.655 C 109.868 179.719,110.348 179.717,110.603 179.650 C 110.858 179.583,110.587 179.531,110.000 179.534 C 109.413 179.537,109.205 179.591,109.536 179.655 M346.400 214.401 C 346.400 214.545,346.637 214.627,346.926 214.583 C 347.722 214.462,347.790 214.254,347.054 214.193 C 346.694 214.164,346.400 214.257,346.400 214.401 M346.467 218.050 C 346.723 218.118,347.143 218.118,347.400 218.050 C 347.657 217.983,347.447 217.929,346.933 217.929 C 346.420 217.929,346.210 217.983,346.467 218.050 M120.499 234.041 C 119.788 234.898,119.835 280.785,120.548 281.692 L 121.105 282.400 144.227 282.400 C 164.722 282.400,167.415 282.353,167.941 281.985 L 168.533 281.570 168.533 269.191 L 168.533 256.812 167.869 256.377 C 167.091 255.867,166.034 256.039,165.696 256.731 C 165.570 256.989,165.407 262.120,165.333 268.133 L 165.200 279.067 144.267 279.067 L 123.333 279.067 123.265 257.933 L 123.197 236.800 134.085 236.800 L 144.974 236.800 145.554 236.183 C 146.241 235.451,146.279 234.993,145.718 234.193 L 145.303 233.600 133.084 233.600 C 122.044 233.600,120.830 233.643,120.499 234.041 M318.077 262.654 C 316.811 263.649,309.428 280.735,309.899 281.578 C 310.903 283.377,312.366 282.653,313.594 279.748 L 314.502 277.600 319.348 277.600 L 324.195 277.600 325.080 279.630 C 326.313 282.458,327.441 283.187,328.675 281.954 C 329.384 281.244,329.110 280.440,325.100 271.467 C 320.773 261.783,320.161 261.015,318.077 262.654 M181.356 263.098 C 180.013 264.806,181.012 265.600,184.505 265.600 C 187.770 265.600,187.467 264.724,187.467 274.146 C 187.467 282.640,187.417 282.400,189.163 282.400 C 190.637 282.400,190.666 282.235,190.671 273.914 C 190.673 269.708,190.767 266.121,190.880 265.943 C 191.014 265.732,192.055 265.593,193.873 265.543 C 197.146 265.453,198.020 264.780,196.867 263.236 L 196.343 262.533 189.127 262.462 L 181.912 262.392 181.356 263.098 M200.908 262.961 C 200.436 263.482,200.394 264.097,200.317 271.694 C 200.213 282.011,200.283 282.400,202.253 282.400 C 203.681 282.400,203.852 281.947,204.000 277.760 L 204.133 274.000 208.667 274.000 L 213.200 274.000 213.333 277.760 C 213.481 281.932,213.655 282.400,215.058 282.400 C 216.806 282.400,216.800 282.435,216.800 272.354 C 216.800 262.262,216.825 262.400,214.994 262.400 C 213.571 262.400,213.333 263.075,213.333 267.126 L 213.333 270.667 208.687 270.667 L 204.040 270.667 203.953 266.911 C 203.876 263.559,203.811 263.115,203.349 262.778 C 202.600 262.231,201.494 262.314,200.908 262.961 M222.726 262.815 L 222.133 263.230 222.133 272.400 L 222.133 281.570 222.726 281.985 C 223.512 282.535,235.633 282.608,236.322 282.067 C 237.049 281.495,237.124 280.678,236.519 279.909 L 235.961 279.200 230.809 279.200 C 224.908 279.200,225.333 279.407,225.333 276.533 C 225.333 273.681,225.000 273.867,230.121 273.867 C 235.012 273.867,235.467 273.726,235.467 272.212 C 235.467 270.960,234.941 270.810,230.027 270.667 L 225.467 270.533 225.467 268.133 L 225.467 265.733 230.693 265.600 C 236.377 265.455,236.800 265.343,236.800 263.982 C 236.800 262.513,236.277 262.400,229.467 262.400 C 224.334 262.400,223.221 262.469,222.726 262.815 M250.200 262.796 L 249.600 263.230 249.600 272.409 L 249.600 281.588 250.268 282.025 C 251.361 282.742,259.041 282.435,261.166 281.590 C 269.383 278.323,269.368 266.372,261.143 263.180 C 259.041 262.364,251.176 262.088,250.200 262.796 M272.050 262.944 C 271.473 263.482,271.467 263.576,271.467 272.351 C 271.467 282.290,271.486 282.400,273.200 282.400 C 274.645 282.400,274.933 281.724,274.933 278.341 L 274.933 275.467 277.140 275.467 L 279.346 275.467 281.340 278.056 C 284.501 282.162,284.741 282.400,285.720 282.400 C 288.025 282.400,287.947 280.956,285.467 277.725 C 283.163 274.723,283.194 274.818,284.333 274.242 C 289.307 271.729,288.428 264.363,282.972 262.832 C 280.478 262.132,272.838 262.210,272.050 262.944 M292.593 262.815 C 291.708 263.435,291.653 280.987,292.533 281.867 C 293.037 282.370,293.422 282.400,299.467 282.400 C 306.406 282.400,306.933 282.287,306.933 280.800 C 306.933 279.365,306.287 279.200,300.667 279.200 L 295.467 279.200 295.467 276.533 L 295.467 273.867 299.949 273.867 C 304.880 273.867,305.400 273.726,305.400 272.395 C 305.400 270.876,304.726 270.667,299.837 270.667 L 295.467 270.667 295.467 268.133 L 295.467 265.600 300.474 265.600 C 306.062 265.600,306.667 265.444,306.667 264.000 C 306.667 262.510,306.162 262.400,299.333 262.400 C 294.201 262.400,293.087 262.469,292.593 262.815 M332.975 262.888 C 332.582 263.321,332.533 264.381,332.533 272.469 C 332.533 282.454,332.525 282.400,334.133 282.400 C 335.675 282.400,335.733 282.150,335.733 275.597 C 335.733 272.316,335.834 269.569,335.958 269.493 C 336.081 269.417,337.234 270.972,338.520 272.950 C 342.014 278.324,342.112 278.326,345.593 273.078 C 346.955 271.024,348.173 269.409,348.301 269.488 C 348.429 269.567,348.533 272.306,348.533 275.574 C 348.533 282.037,348.617 282.400,350.105 282.400 C 351.796 282.400,351.733 282.781,351.733 272.543 C 351.733 262.117,351.786 262.400,349.849 262.400 C 348.626 262.400,348.709 262.299,344.809 268.511 C 342.803 271.705,342.217 272.463,341.956 272.199 C 341.776 272.016,340.412 269.947,338.925 267.600 C 335.386 262.015,334.441 261.267,332.975 262.888 M260.133 266.321 C 262.413 267.525,263.722 269.743,263.722 272.400 C 263.722 276.734,261.189 278.967,256.067 279.150 L 253.067 279.258 253.067 272.400 L 253.067 265.542 256.067 265.650 C 258.464 265.736,259.281 265.870,260.133 266.321 M281.964 265.968 C 284.345 266.963,284.760 270.075,282.715 271.600 C 282.101 272.058,281.499 272.146,278.467 272.221 L 274.933 272.308 274.933 269.132 C 274.933 267.385,275.013 265.876,275.111 265.778 C 275.456 265.433,281.054 265.588,281.964 265.968 M321.173 270.584 C 321.994 272.518,322.667 274.168,322.667 274.251 C 322.667 274.333,321.167 274.400,319.333 274.400 C 317.500 274.400,316.000 274.351,316.000 274.290 C 316.000 274.176,318.347 268.684,318.948 267.393 C 319.397 266.427,319.424 266.466,321.173 270.584 " stroke="none" fill="#33445b" fill-rule="evenodd"></path><path id="path3" d="M147.333 252.800 C 144.233 255.912,144.480 255.839,142.800 254.133 C 139.968 251.258,137.805 253.304,140.529 256.281 C 142.225 258.133,142.310 257.835,139.200 260.933 C 136.312 263.810,135.940 264.621,137.126 265.452 C 138.100 266.134,138.359 265.986,141.368 263.021 L 144.256 260.175 145.861 261.706 C 147.643 263.406,148.267 263.532,149.134 262.367 C 149.778 261.500,149.556 260.970,147.782 259.136 L 146.559 257.872 149.413 254.976 C 152.344 252.001,152.675 251.386,151.779 250.575 C 150.781 249.672,150.121 250.002,147.333 252.800 " stroke="none" fill="#ebc046" fill-rule="evenodd"></path><path id="path4" d="M281.937 180.458 C 282.342 180.519,282.942 180.518,283.270 180.454 C 283.598 180.391,283.267 180.341,282.533 180.343 C 281.800 180.345,281.532 180.397,281.937 180.458 M314.250 184.067 L 313.467 184.933 314.333 184.150 C 315.141 183.420,315.323 183.200,315.117 183.200 C 315.071 183.200,314.681 183.590,314.250 184.067 M349.400 184.184 C 349.657 184.251,350.077 184.251,350.333 184.184 C 350.590 184.117,350.380 184.062,349.867 184.062 C 349.353 184.062,349.143 184.117,349.400 184.184 M319.806 205.867 C 319.806 206.527,319.858 206.797,319.922 206.467 C 319.985 206.137,319.985 205.597,319.922 205.267 C 319.858 204.937,319.806 205.207,319.806 205.867 M309.267 210.055 C 309.597 210.118,310.137 210.118,310.467 210.055 C 310.797 209.991,310.527 209.939,309.867 209.939 C 309.207 209.939,308.937 209.991,309.267 210.055 M320.200 210.060 C 320.677 210.119,321.457 210.119,321.933 210.060 C 322.410 210.000,322.020 209.952,321.067 209.952 C 320.113 209.952,319.723 210.000,320.200 210.060 M335.800 210.058 C 336.203 210.119,336.863 210.119,337.267 210.058 C 337.670 209.997,337.340 209.947,336.533 209.947 C 335.727 209.947,335.397 209.997,335.800 210.058 M345.800 210.055 C 346.130 210.118,346.670 210.118,347.000 210.055 C 347.330 209.991,347.060 209.939,346.400 209.939 C 345.740 209.939,345.470 209.991,345.800 210.055 M356.738 210.060 C 357.217 210.119,357.937 210.118,358.338 210.057 C 358.739 209.996,358.347 209.948,357.467 209.949 C 356.587 209.951,356.259 210.001,356.738 210.060 M366.737 210.058 C 367.142 210.119,367.742 210.118,368.070 210.054 C 368.398 209.991,368.067 209.941,367.333 209.943 C 366.600 209.945,366.332 209.997,366.737 210.058 M341.395 216.800 C 341.395 217.313,341.450 217.523,341.517 217.267 C 341.584 217.010,341.584 216.590,341.517 216.333 C 341.450 216.077,341.395 216.287,341.395 216.800 M314.733 224.184 C 314.990 224.251,315.410 224.251,315.667 224.184 C 315.923 224.117,315.713 224.062,315.200 224.062 C 314.687 224.062,314.477 224.117,314.733 224.184 M151.108 234.088 C 150.478 234.784,150.551 235.889,151.259 236.385 C 151.758 236.734,152.923 236.800,158.593 236.800 L 165.333 236.800 165.333 243.541 C 165.333 251.148,165.403 251.467,167.072 251.467 C 168.495 251.467,168.533 251.232,168.533 242.437 C 168.533 235.521,168.477 234.381,168.114 234.019 C 167.426 233.331,151.735 233.394,151.108 234.088 M188.667 234.027 C 177.886 237.451,179.970 253.617,191.253 254.089 C 196.635 254.313,201.827 250.374,198.280 248.757 C 197.700 248.493,197.444 248.576,196.206 249.428 C 191.134 252.921,185.339 249.955,185.339 243.867 C 185.339 237.484,190.872 234.958,196.720 238.673 C 197.544 239.196,198.712 238.748,199.053 237.777 C 200.005 235.070,193.161 232.599,188.667 234.027 M209.532 233.890 C 203.329 235.352,199.985 242.717,202.867 248.572 C 207.473 257.928,221.853 254.945,222.351 244.529 C 222.698 237.267,216.617 232.220,209.532 233.890 M227.227 234.373 C 226.373 235.227,226.348 252.482,227.200 253.333 C 227.985 254.118,234.848 254.123,237.383 253.340 C 246.710 250.459,246.959 237.459,237.745 234.488 C 235.413 233.736,227.946 233.654,227.227 234.373 M249.236 234.419 L 248.533 234.972 248.533 243.840 L 248.533 252.707 249.151 253.287 C 249.749 253.849,249.963 253.867,256.176 253.867 C 263.221 253.867,263.467 253.810,263.467 252.194 C 263.467 250.827,262.803 250.667,257.131 250.667 L 251.981 250.667 252.057 248.067 L 252.133 245.467 256.653 245.393 C 261.494 245.315,262.138 245.138,262.129 243.892 C 262.118 242.388,261.271 242.133,256.284 242.133 L 252.000 242.133 252.000 239.600 L 252.000 237.067 257.200 237.067 C 262.820 237.067,263.467 236.902,263.467 235.467 C 263.467 233.986,262.922 233.867,256.169 233.867 C 250.270 233.867,249.901 233.896,249.236 234.419 M215.086 237.546 C 221.398 240.791,219.187 250.922,212.164 250.932 C 205.909 250.941,203.093 242.658,207.909 238.419 C 209.822 236.734,212.803 236.372,215.086 237.546 M237.067 237.717 C 239.699 239.057,240.963 241.393,240.740 244.504 C 240.438 248.726,237.922 250.667,232.752 250.667 L 230.133 250.667 230.133 244.044 C 230.133 240.402,230.223 237.329,230.333 237.216 C 230.723 236.814,236.075 237.212,237.067 237.717 M151.485 241.881 C 150.350 242.396,144.814 247.536,144.222 248.624 C 143.880 249.253,144.423 250.650,145.032 250.709 C 146.176 250.820,146.733 250.443,149.594 247.617 C 153.442 243.816,155.389 243.343,157.170 245.776 C 158.669 247.825,158.089 249.290,154.285 253.062 C 151.380 255.943,150.875 256.902,151.787 257.813 C 153.383 259.409,160.462 252.408,160.965 248.736 C 161.650 243.738,156.153 239.764,151.485 241.881 M132.088 260.589 C 128.516 264.114,127.733 265.421,127.733 267.867 C 127.733 271.523,130.754 274.667,134.266 274.667 C 138.116 274.667,145.972 267.343,144.114 265.486 C 143.171 264.542,142.450 264.934,139.167 268.177 C 135.449 271.849,134.146 272.341,132.285 270.774 C 129.758 268.648,130.115 267.183,134.172 263.034 C 137.484 259.646,137.773 259.107,136.800 258.133 C 135.826 257.159,135.272 257.448,132.088 260.589 " stroke="none" fill="#ec604c" fill-rule="evenodd"></path></g></svg>